<svg version="1.2" xmlns="http://www.w3.org/2000/svg" viewBox="0 0 551 451" width="551" height="451">
	<title>logo</title>
	<style>
		.s0 { fill: #1f1d44 } 
		.s1 { fill: #636ae8 } 
		.s2 { fill: #ffffff } 
		.s3 { fill: #fab816 } 
	</style>
	<g id="6e07bd6b43">
		<path class="s0" d="m357.2 392.9v0.2l-0.2-0.1c0 0 0.1 0 0.2-0.1z"/>
		<path class="s1" d="m405.3 147.8l-23.1 82-137.1-38.7 23.1-82c10.7-37.8 50-59.8 87.9-49.2 18.9 5.4 33.9 17.9 42.8 33.8 8.9 15.9 11.7 35.1 6.4 54.1z"/>
		<path class="s2" d="m358.1 68.8c-31.5-7.2-64 13.5-73.6 47.2l-20.4 72.3-9.3-2.6 21.1-74.5c9.5-33.6 44.5-53.2 78.1-43.7q2.1 0.6 4.1 1.3z"/>
		<path class="s3" d="m224.9 365.9l76.2-38.1-63.7-127.4-76.2 38.1c-35.2 17.6-49.5 60.4-31.9 95.6 8.8 17.6 23.9 29.9 41.2 35.6 17.3 5.8 36.8 5 54.4-3.8z"/>
		<path class="s2" d="m138.4 334.3c-12.9-29.5 1.3-65.4 32.7-81.1l67.2-33.6-4.3-8.6-69.2 34.6c-31.3 15.6-44 53.7-28.4 85 0.6 1.2 1.3 2.5 2 3.7z"/>
		<path class="s1" d="m337.7 272.3c-0.1 0-0.3-0.3-0.8-0.8-2.4-2.3-10.5-8.8-26.6-11.3-15-2.3-23.5-19-24.7-30.8-0.3-3-0.1-5.8 0.5-7.8 28.9 5.5 38.4 29.3 38.7 30.1-1.1-4.3-2.7-8-4.6-11.4-0.2-0.4-0.4-0.8-0.7-1.1-10.2-16.8-28.4-22.6-35.8-24.3 47.5-6.4 53.2 42.8 53.9 54.8q0.1 1.3 0.1 2.6z"/>
		<path class="s1" d="m426.9 262.3c-0.1 0-0.5-0.1-1.2-0.1-3.4-0.3-14-0.2-28.3 8.3-13.4 7.9-30.9 0.2-39.5-8.4-2.2-2.2-3.9-4.5-4.7-6.5 26.4-14.4 49.4-1.8 50.1-1.3-3.6-2.6-7.3-4.6-11-6-0.4-0.2-0.8-0.3-1.2-0.5-19-6.6-37.1 0.6-44.1 4 33.4-35.8 69.8-0.7 78.2 8.4 0.5 0.7 1.1 1.3 1.7 2.1z"/>
		<path class="s1" d="m353.9 353c-0.1 0-0.3-0.3-0.6-0.8-1.7-2.6-6.5-11-6.3-26.2 0.2-14.1-13.8-24.5-24.5-27.4-2.8-0.7-5.3-1-7.3-0.7 0.7 27.3 21.1 39.7 21.7 40.1-3.7-1.7-6.9-3.7-9.6-5.9-0.4-0.3-0.7-0.6-1-0.8-13.9-12-16.4-29.6-16.9-36.6-13.1 42.6 31.2 55.4 42.1 57.9 0.8 0.1 1.6 0.3 2.4 0.4z"/>
		<path class="s1" d="m406.4 317.9c-0.1 0-0.3-0.2-0.8-0.4-2.4-1.2-10.4-4.3-23.5-2.3-12.2 1.9-22.9-9-26.8-17.9-1-2.3-1.5-4.5-1.5-6.2 23.8-2.8 37.1 13.3 37.5 13.9-1.9-3-4-5.6-6.3-7.7-0.3-0.3-0.6-0.5-0.9-0.7-12-10.6-27.7-10.6-33.8-10.1 35.4-16.7 51.9 20.2 55.4 29.4 0.3 0.6 0.5 1.3 0.7 2z"/>
		<path class="s1" d="m274.9 231.4q0 0.6-0.1 1.1-0.1 0.5-0.3 1-0.2 0.5-0.5 1-0.3 0.5-0.7 0.8-0.4 0.4-0.9 0.7-0.4 0.3-0.9 0.6-0.5 0.2-1.1 0.3-0.5 0.1-1.1 0.1-0.5 0-1.1-0.1-0.5-0.1-1-0.3-0.5-0.3-1-0.6-0.4-0.3-0.8-0.7-0.4-0.3-0.7-0.8-0.3-0.5-0.5-1-0.2-0.5-0.3-1-0.1-0.5-0.1-1.1 0-0.5 0.1-1.1 0.1-0.5 0.3-1 0.2-0.5 0.5-1 0.3-0.5 0.7-0.8 0.4-0.4 0.8-0.7 0.5-0.3 1-0.5 0.5-0.3 1-0.4 0.6-0.1 1.1-0.1 0.6 0 1.1 0.1 0.6 0.1 1.1 0.4 0.5 0.2 0.9 0.5 0.5 0.3 0.9 0.7 0.4 0.3 0.7 0.8 0.3 0.5 0.5 1 0.2 0.5 0.3 1 0.1 0.6 0.1 1.1z"/>
		<path class="s1" d="m344.3 230.1q0 0.7-0.3 1.5-0.3 0.7-0.9 1.2-0.5 0.6-1.2 0.9-0.8 0.3-1.5 0.3-0.8 0-1.5-0.3-0.8-0.3-1.3-0.9-0.6-0.5-0.9-1.2-0.3-0.8-0.3-1.5 0-0.8 0.3-1.5 0.3-0.8 0.9-1.3 0.5-0.6 1.3-0.9 0.7-0.3 1.5-0.3 0.7 0 1.5 0.3 0.7 0.3 1.2 0.9 0.6 0.5 0.9 1.3 0.3 0.7 0.3 1.5z"/>
		<path class="s1" d="m416.9 275.5q0 0.8-0.3 1.5-0.3 0.7-0.9 1.3-0.5 0.5-1.2 0.8-0.8 0.3-1.5 0.3-0.8 0-1.5-0.3-0.8-0.3-1.3-0.8-0.6-0.6-0.9-1.3-0.3-0.7-0.3-1.5 0-0.8 0.3-1.5 0.3-0.7 0.9-1.3 0.5-0.5 1.3-0.8 0.7-0.3 1.5-0.3 0.7 0 1.5 0.3 0.7 0.3 1.2 0.8 0.6 0.6 0.9 1.3 0.3 0.7 0.3 1.5z"/>
		<path class="s1" d="m365.3 328.9q0 0.8-0.3 1.5-0.3 0.7-0.9 1.2-0.5 0.6-1.2 0.9-0.8 0.3-1.5 0.3-0.8 0-1.5-0.3-0.8-0.3-1.3-0.9-0.6-0.5-0.9-1.2-0.3-0.7-0.3-1.5 0-0.8 0.3-1.5 0.3-0.7 0.9-1.3 0.5-0.5 1.3-0.8 0.7-0.3 1.5-0.3 0.7 0 1.5 0.3 0.7 0.3 1.2 0.8 0.6 0.6 0.9 1.3 0.3 0.7 0.3 1.5z"/>
		<path class="s1" d="m354.9 272.8q0 0.6-0.1 1.1-0.1 0.6-0.4 1.1-0.2 0.5-0.5 0.9-0.3 0.5-0.7 0.9-0.4 0.4-0.8 0.7-0.5 0.3-1 0.5-0.5 0.2-1 0.3-0.6 0.1-1.1 0.1-0.6 0-1.1-0.1-0.5-0.1-1-0.3-0.5-0.2-1-0.5-0.5-0.3-0.9-0.7-0.3-0.4-0.6-0.9-0.3-0.4-0.6-0.9-0.2-0.5-0.3-1.1-0.1-0.5-0.1-1.1 0-0.5 0.1-1.1 0.1-0.5 0.3-1 0.3-0.5 0.6-1 0.3-0.4 0.6-0.8 0.4-0.4 0.9-0.7 0.5-0.3 1-0.5 0.5-0.2 1-0.3 0.5-0.1 1.1-0.2 0.5 0.1 1.1 0.2 0.5 0.1 1 0.3 0.5 0.2 1 0.5 0.4 0.3 0.8 0.7 0.4 0.4 0.7 0.8 0.3 0.5 0.5 1 0.3 0.5 0.4 1 0.1 0.6 0.1 1.1z"/>
		<path class="s1" d="m310.7 277.2q0 0.9-0.2 1.8-0.2 0.9-0.6 1.8-0.3 0.8-0.8 1.6-0.5 0.8-1.2 1.4-0.6 0.7-1.4 1.2-0.7 0.5-1.6 0.8-0.8 0.4-1.7 0.6-0.9 0.1-1.9 0.1-0.9 0-1.8-0.1-0.9-0.2-1.7-0.6-0.9-0.3-1.6-0.8-0.8-0.5-1.4-1.2-0.7-0.6-1.2-1.4-0.5-0.8-0.9-1.6-0.3-0.9-0.5-1.8-0.2-0.9-0.2-1.8 0-0.9 0.2-1.8 0.2-0.9 0.5-1.7 0.4-0.9 0.9-1.7 0.5-0.7 1.2-1.4 0.6-0.6 1.4-1.1 0.7-0.5 1.6-0.9 0.8-0.3 1.7-0.5 0.9-0.2 1.8-0.2 1 0 1.9 0.2 0.9 0.2 1.7 0.5 0.9 0.4 1.6 0.9 0.8 0.5 1.4 1.1 0.7 0.7 1.2 1.4 0.5 0.8 0.8 1.7 0.4 0.8 0.6 1.7 0.2 0.9 0.2 1.8z"/>
	</g>
</svg>