<svg xmlns="http://www.w3.org/2000/svg" xmlns:xlink="http://www.w3.org/1999/xlink" width="40" zoomAndPan="magnify" viewBox="0 0 30 30.000001" height="40" preserveAspectRatio="xMidYMid meet" version="1.2"><defs><clipPath id="47f92f9b12"><path d="M 1.238281 2 L 28 2 L 28 26.960938 L 1.238281 26.960938 Z M 1.238281 2 "/></clipPath><clipPath id="d1f88b1827"><path d="M 26 13 L 29 13 L 29 15 L 26 15 Z M 26 13 "/></clipPath><clipPath id="8655396e45"><path d="M 26.921875 15.152344 L 26.542969 13.007812 L 28.6875 12.628906 L 29.066406 14.773438 Z M 26.921875 15.152344 "/></clipPath><clipPath id="93e1279335"><path d="M 26.921875 15.152344 L 26.542969 13.007812 L 28.6875 12.628906 L 29.066406 14.773438 Z M 26.921875 15.152344 "/></clipPath></defs><g id="2f2ef51a5c"><path style=" stroke:none;fill-rule:nonzero;fill:#1f1d44;fill-opacity:1;" d="M 22.597656 23.652344 L 22.597656 23.660156 L 22.585938 23.65625 C 22.589844 23.65625 22.589844 23.65625 22.597656 23.652344 Z M 22.597656 23.652344 "/><g clip-rule="nonzero" clip-path="url(#47f92f9b12)"><path style=" stroke:none;fill-rule:nonzero;fill:#636ae8;fill-opacity:1;" d="M 27.730469 16.800781 C 27.378906 19.332031 26.203125 21.542969 24.511719 23.210938 C 24.402344 23.324219 24.28125 23.433594 24.164062 23.542969 C 23.867188 23.8125 23.554688 24.066406 23.230469 24.300781 C 23.15625 24.359375 23.078125 24.414062 23 24.46875 C 20.777344 25.996094 18 26.730469 15.117188 26.328125 C 12.367188 25.945312 9.992188 24.59375 8.289062 22.664062 C 6.6875 20.851562 5.679688 18.535156 5.507812 16.03125 C 5.480469 15.652344 5.476562 15.261719 5.492188 14.871094 C 5.492188 14.789062 5.496094 14.710938 5.5 14.625 C 5.511719 14.457031 5.523438 14.285156 5.539062 14.117188 C 5.515625 13.734375 5.425781 13.371094 5.273438 13.042969 C 5.253906 12.996094 5.230469 12.945312 5.207031 12.902344 C 4.890625 12.292969 4.371094 11.804688 3.738281 11.53125 C 4.707031 12.007812 5.097656 13.140625 5.097656 13.140625 C 4.933594 13.253906 4.621094 13.289062 4.28125 13.242188 C 3.707031 13.164062 3.054688 12.84375 2.863281 12.226562 C 2.558594 11.234375 2.035156 10.910156 2.035156 10.910156 C 2.539062 10.847656 2.96875 10.851562 3.339844 10.902344 C 5.066406 11.144531 5.390625 12.429688 5.457031 12.859375 C 5.476562 12.890625 5.496094 12.925781 5.511719 12.960938 C 5.566406 13.0625 5.617188 13.167969 5.660156 13.273438 C 5.710938 12.996094 5.773438 12.71875 5.839844 12.453125 C 5.921875 12.136719 6.015625 11.824219 6.125 11.523438 C 6.609375 9.296875 5.777344 7.074219 4.132812 5.691406 C 5.695312 7.140625 5.8125 9.507812 5.8125 9.507812 C 5.636719 9.566406 5.414062 9.574219 5.15625 9.539062 C 3.953125 9.371094 2.101562 8.214844 2.082031 6.527344 C 2.058594 4.480469 1.246094 3.5625 1.246094 3.5625 C 6.910156 4.507812 6.792969 8.144531 6.640625 9.175781 C 6.707031 9.445312 6.757812 9.71875 6.789062 10 C 7.035156 9.539062 7.3125 9.097656 7.613281 8.679688 C 8.015625 7.003906 9.984375 1.554688 18.480469 2.742188 C 19.003906 2.816406 19.546875 2.914062 20.121094 3.039062 C 20.121094 3.039062 18.1875 4 16.808594 7.332031 C 15.757812 9.867188 12.460938 10.636719 10.324219 10.339844 C 9.652344 10.246094 9.09375 10.046875 8.757812 9.765625 C 8.757812 9.765625 10.496094 5.96875 14.003906 4.628906 C 10.320312 5.835938 7.453125 9.050781 6.878906 13.148438 C 6.433594 16.363281 7.488281 19.4375 9.511719 21.664062 C 9.597656 21.761719 9.683594 21.851562 9.773438 21.945312 C 11.339844 23.546875 13.433594 24.664062 15.824219 25 C 17.164062 25.183594 18.476562 25.109375 19.714844 24.816406 C 19.714844 24.816406 19.714844 24.816406 19.71875 24.816406 C 20.53125 24.621094 21.316406 24.332031 22.054688 23.953125 C 22.125 23.914062 22.191406 23.878906 22.261719 23.839844 C 22.371094 23.78125 22.476562 23.722656 22.582031 23.660156 L 22.59375 23.664062 L 22.59375 23.65625 C 22.675781 23.605469 22.757812 23.558594 22.839844 23.507812 C 22.976562 23.417969 23.113281 23.332031 23.25 23.234375 C 23.421875 23.121094 23.585938 22.996094 23.746094 22.867188 C 23.871094 22.769531 23.996094 22.667969 24.117188 22.566406 C 25.992188 20.957031 27.304688 18.6875 27.675781 16.050781 C 27.78125 15.304688 27.804688 14.570312 27.75 13.847656 C 27.875 14.808594 27.871094 15.796875 27.730469 16.800781 Z M 27.730469 16.800781 "/></g><path style=" stroke:none;fill-rule:nonzero;fill:#636ae8;fill-opacity:1;" d="M 25.296875 9.886719 L 24 14.492188 L 16.304688 12.320312 L 17.601562 7.714844 C 18.199219 5.589844 20.410156 4.355469 22.535156 4.953125 C 23.597656 5.253906 24.4375 5.957031 24.9375 6.847656 C 25.4375 7.742188 25.597656 8.820312 25.296875 9.886719 Z M 25.296875 9.886719 "/><path style=" stroke:none;fill-rule:nonzero;fill:#ffffff;fill-opacity:1;" d="M 22.648438 5.449219 C 20.882812 5.046875 19.050781 6.207031 18.515625 8.101562 L 17.371094 12.164062 L 16.847656 12.015625 L 18.03125 7.835938 C 18.5625 5.945312 20.53125 4.84375 22.417969 5.375 C 22.496094 5.398438 22.570312 5.421875 22.648438 5.449219 Z M 22.648438 5.449219 "/><path style=" stroke:none;fill-rule:nonzero;fill:#fab816;fill-opacity:1;" d="M 15.164062 22.132812 L 19.445312 19.996094 L 15.871094 12.84375 L 11.589844 14.984375 C 9.617188 15.972656 8.8125 18.371094 9.800781 20.347656 C 10.296875 21.335938 11.140625 22.027344 12.113281 22.347656 C 13.085938 22.675781 14.179688 22.628906 15.164062 22.132812 Z M 15.164062 22.132812 "/><path style=" stroke:none;fill-rule:nonzero;fill:#ffffff;fill-opacity:1;" d="M 10.3125 20.359375 C 9.585938 18.703125 10.382812 16.6875 12.144531 15.808594 L 15.917969 13.921875 L 15.675781 13.433594 L 11.789062 15.378906 C 10.035156 16.257812 9.324219 18.398438 10.199219 20.152344 C 10.234375 20.222656 10.273438 20.292969 10.3125 20.359375 Z M 10.3125 20.359375 "/><path style=" stroke:none;fill-rule:nonzero;fill:#636ae8;fill-opacity:1;" d="M 21.503906 16.878906 C 21.496094 16.875 21.484375 16.859375 21.457031 16.835938 C 21.320312 16.703125 20.871094 16.335938 19.964844 16.199219 C 19.121094 16.070312 18.644531 15.132812 18.578125 14.46875 C 18.558594 14.296875 18.570312 14.144531 18.605469 14.027344 C 20.226562 14.34375 20.761719 15.675781 20.777344 15.71875 C 20.714844 15.480469 20.628906 15.273438 20.519531 15.082031 C 20.507812 15.0625 20.496094 15.039062 20.480469 15.019531 C 19.90625 14.078125 18.882812 13.75 18.46875 13.65625 C 21.136719 13.296875 21.457031 16.054688 21.496094 16.734375 C 21.496094 16.78125 21.5 16.828125 21.5 16.878906 Z M 21.503906 16.878906 "/><path style=" stroke:none;fill-rule:nonzero;fill:#636ae8;fill-opacity:1;" d="M 26.511719 16.316406 C 26.503906 16.316406 26.480469 16.3125 26.445312 16.308594 C 26.253906 16.292969 25.65625 16.296875 24.851562 16.777344 C 24.105469 17.21875 23.121094 16.789062 22.636719 16.304688 C 22.511719 16.179688 22.417969 16.054688 22.375 15.9375 C 23.859375 15.132812 25.144531 15.839844 25.1875 15.867188 C 24.984375 15.71875 24.773438 15.613281 24.570312 15.53125 C 24.546875 15.519531 24.519531 15.515625 24.5 15.503906 C 23.433594 15.128906 22.414062 15.535156 22.027344 15.726562 C 23.902344 13.714844 25.945312 15.691406 26.414062 16.199219 C 26.441406 16.238281 26.476562 16.273438 26.511719 16.316406 Z M 26.511719 16.316406 "/><path style=" stroke:none;fill-rule:nonzero;fill:#636ae8;fill-opacity:1;" d="M 22.414062 21.414062 C 22.40625 21.40625 22.394531 21.394531 22.378906 21.363281 C 22.28125 21.21875 22.015625 20.746094 22.027344 19.894531 C 22.035156 19.101562 21.25 18.519531 20.648438 18.355469 C 20.492188 18.3125 20.351562 18.300781 20.242188 18.3125 C 20.28125 19.851562 21.421875 20.546875 21.457031 20.570312 C 21.25 20.472656 21.070312 20.359375 20.914062 20.234375 C 20.898438 20.21875 20.878906 20.203125 20.863281 20.191406 C 20.085938 19.519531 19.941406 18.527344 19.914062 18.136719 C 19.179688 20.53125 21.664062 21.246094 22.277344 21.386719 C 22.320312 21.394531 22.367188 21.402344 22.410156 21.414062 Z M 22.414062 21.414062 "/><path style=" stroke:none;fill-rule:nonzero;fill:#636ae8;fill-opacity:1;" d="M 25.363281 19.4375 C 25.355469 19.4375 25.34375 19.425781 25.316406 19.414062 C 25.179688 19.347656 24.734375 19.171875 23.996094 19.289062 C 23.308594 19.394531 22.707031 18.78125 22.492188 18.28125 C 22.4375 18.152344 22.40625 18.03125 22.40625 17.933594 C 23.746094 17.777344 24.492188 18.683594 24.511719 18.710938 C 24.40625 18.542969 24.285156 18.402344 24.15625 18.28125 C 24.140625 18.269531 24.125 18.253906 24.109375 18.242188 C 23.433594 17.648438 22.554688 17.644531 22.210938 17.671875 C 24.199219 16.738281 25.125 18.808594 25.320312 19.328125 C 25.335938 19.359375 25.347656 19.398438 25.363281 19.4375 Z M 25.363281 19.4375 "/><path style=" stroke:none;fill-rule:nonzero;fill:#636ae8;fill-opacity:1;" d="M 17.976562 14.582031 C 17.976562 14.667969 17.945312 14.742188 17.882812 14.804688 C 17.824219 14.863281 17.75 14.894531 17.664062 14.894531 C 17.578125 14.894531 17.503906 14.863281 17.441406 14.804688 C 17.378906 14.742188 17.351562 14.667969 17.351562 14.582031 C 17.351562 14.496094 17.378906 14.421875 17.441406 14.359375 C 17.503906 14.300781 17.578125 14.269531 17.664062 14.269531 C 17.75 14.269531 17.824219 14.300781 17.882812 14.359375 C 17.945312 14.421875 17.976562 14.496094 17.976562 14.582031 Z M 17.976562 14.582031 "/><path style=" stroke:none;fill-rule:nonzero;fill:#636ae8;fill-opacity:1;" d="M 21.871094 14.507812 C 21.871094 14.652344 21.796875 14.726562 21.652344 14.726562 C 21.503906 14.726562 21.433594 14.652344 21.433594 14.507812 C 21.433594 14.359375 21.503906 14.285156 21.652344 14.285156 C 21.796875 14.285156 21.871094 14.359375 21.871094 14.507812 Z M 21.871094 14.507812 "/><path style=" stroke:none;fill-rule:nonzero;fill:#636ae8;fill-opacity:1;" d="M 25.949219 17.058594 C 25.949219 17.207031 25.875 17.28125 25.730469 17.28125 C 25.582031 17.28125 25.507812 17.207031 25.507812 17.058594 C 25.507812 16.914062 25.582031 16.839844 25.730469 16.839844 C 25.875 16.839844 25.949219 16.914062 25.949219 17.058594 Z M 25.949219 17.058594 "/><path style=" stroke:none;fill-rule:nonzero;fill:#636ae8;fill-opacity:1;" d="M 23.050781 20.054688 C 23.050781 20.203125 22.976562 20.277344 22.832031 20.277344 C 22.683594 20.277344 22.609375 20.203125 22.609375 20.054688 C 22.609375 19.910156 22.683594 19.835938 22.832031 19.835938 C 22.976562 19.835938 23.050781 19.910156 23.050781 20.054688 Z M 23.050781 20.054688 "/><path style=" stroke:none;fill-rule:nonzero;fill:#636ae8;fill-opacity:1;" d="M 22.464844 16.90625 C 22.464844 16.996094 22.4375 17.066406 22.375 17.128906 C 22.3125 17.191406 22.238281 17.222656 22.152344 17.222656 C 22.066406 17.222656 21.992188 17.191406 21.933594 17.128906 C 21.871094 17.066406 21.839844 16.996094 21.839844 16.90625 C 21.839844 16.820312 21.871094 16.746094 21.933594 16.6875 C 21.992188 16.625 22.066406 16.59375 22.152344 16.59375 C 22.238281 16.59375 22.3125 16.625 22.375 16.6875 C 22.4375 16.746094 22.464844 16.820312 22.464844 16.90625 Z M 22.464844 16.90625 "/><path style=" stroke:none;fill-rule:nonzero;fill:#636ae8;fill-opacity:1;" d="M 19.984375 17.15625 C 19.984375 17.300781 19.933594 17.421875 19.832031 17.523438 C 19.726562 17.628906 19.605469 17.679688 19.460938 17.679688 C 19.316406 17.679688 19.191406 17.628906 19.089844 17.523438 C 18.988281 17.421875 18.9375 17.300781 18.9375 17.15625 C 18.9375 17.011719 18.988281 16.886719 19.089844 16.785156 C 19.191406 16.683594 19.316406 16.632812 19.460938 16.632812 C 19.605469 16.632812 19.726562 16.683594 19.832031 16.785156 C 19.933594 16.886719 19.984375 17.011719 19.984375 17.15625 Z M 19.984375 17.15625 "/><g clip-rule="nonzero" clip-path="url(#d1f88b1827)"><g clip-rule="nonzero" clip-path="url(#8655396e45)"><g clip-rule="nonzero" clip-path="url(#93e1279335)"><path style=" stroke:none;fill-rule:nonzero;fill:#636ae8;fill-opacity:1;" d="M 28.777344 14.65625 C 28.652344 14.816406 27.941406 14.414062 27.777344 14.445312 C 27.578125 14.484375 27.21875 15.101562 27.015625 14.984375 C 26.882812 14.910156 27.3125 13.148438 27.539062 13.109375 C 27.847656 13.054688 28.824219 14.59375 28.777344 14.65625 Z M 28.777344 14.65625 "/></g></g></g></g></svg>