<?xml version="1.0" standalone="no"?>
<!DOCTYPE svg PUBLIC "-//W3C//DTD SVG 20010904//EN"
 "http://www.w3.org/TR/2001/REC-SVG-20010904/DTD/svg10.dtd">
<svg version="1.0" xmlns="http://www.w3.org/2000/svg"
 width="800.000000pt" height="449.000000pt" viewBox="0 0 800.000000 449.000000"
 preserveAspectRatio="xMidYMid meet">

<g transform="translate(0.000000,449.000000) scale(0.100000,-0.100000)"
fill="#000000" stroke="none">
<path d="M3035 4284 c-316 -47 -559 -166 -770 -378 -202 -203 -317 -432 -362
-721 -17 -116 -12 -313 12 -435 34 -171 125 -378 227 -515 53 -72 1639 -1671
1805 -1820 192 -172 394 -274 637 -320 118 -23 377 -20 491 5 262 58 478 173
653 349 183 183 303 407 359 671 26 127 24 370 -6 510 -40 189 -135 389 -257
540 -74 92 -1796 1808 -1869 1862 -142 106 -298 179 -478 224 -82 20 -133 26
-257 29 -85 2 -168 1 -185 -1z m396 -288 c224 -57 331 -127 609 -402 l215
-212 90 -7 c91 -7 216 -41 290 -77 73 -36 182 -128 257 -214 109 -127 119
-168 57 -238 -20 -24 -43 -38 -70 -43 l-39 -8 145 -145 145 -145 141 -10 141
-11 36 -38 35 -39 -5 -122 -6 -123 69 -68 c226 -224 342 -557 299 -859 -34
-234 -135 -440 -296 -601 -84 -84 -155 -134 -271 -193 -298 -149 -680 -138
-965 30 -103 61 -155 105 -360 308 l-207 204 -68 4 c-108 5 -209 31 -307 81
-77 39 -107 62 -198 153 -120 120 -148 159 -148 207 0 66 60 132 120 132 21 0
1 23 -124 149 l-149 149 -116 7 c-205 12 -237 43 -225 220 l7 104 -84 90
c-103 110 -181 233 -227 354 -53 143 -66 214 -65 377 0 123 4 160 26 242 126
475 547 791 1032 773 83 -3 150 -12 216 -29z"/>
<path d="M6279 4280 c-209 -33 -409 -115 -584 -238 -27 -20 -202 -187 -388
-371 l-337 -335 92 -93 92 -93 336 333 c190 189 360 350 393 371 89 58 218
115 325 143 84 23 117 26 252 26 136 0 167 -3 255 -26 324 -87 594 -329 705
-634 50 -140 63 -213 63 -368 0 -119 -4 -155 -27 -240 -30 -115 -97 -260 -163
-354 -26 -37 -253 -274 -508 -531 l-463 -465 -6 -115 c-4 -63 -15 -157 -25
-209 l-18 -94 597 599 c491 493 607 614 652 684 156 238 221 451 222 725 0
167 -12 255 -56 395 -137 433 -482 754 -932 866 -81 21 -132 26 -261 29 -88 2
-185 0 -216 -5z"/>
<path d="M1129 2773 c-431 -433 -609 -619 -646 -673 -104 -153 -183 -346 -214
-520 -22 -118 -17 -354 10 -477 55 -263 178 -485 365 -666 176 -170 397 -287
633 -336 143 -30 383 -30 526 0 192 39 384 130 544 256 43 34 215 200 383 368
l305 305 -92 92 -93 92 -327 -325 c-361 -359 -429 -413 -604 -483 -196 -77
-430 -90 -644 -37 -108 28 -282 116 -382 196 -129 101 -252 268 -308 419 -120
319 -88 642 91 934 39 63 133 163 524 557 l478 480 6 120 c3 66 14 159 24 208
10 48 18 87 17 87 0 0 -268 -269 -596 -597z"/>
</g>
</svg>
