<svg xmlns="http://www.w3.org/2000/svg" xmlns:xlink="http://www.w3.org/1999/xlink" width="550" zoomAndPan="magnify" viewBox="0 0 412.5 336.749994" height="449" preserveAspectRatio="xMidYMid meet" version="1.2"><defs><clipPath id="4d0c6c73d5"><path d="M 33.632812 13 L 389 13 L 389 333 L 33.632812 333 Z M 33.632812 13 "/></clipPath><clipPath id="2e491b3fbc"><path d="M 377 154 L 402 154 L 402 180 L 377 180 Z M 377 154 "/></clipPath><clipPath id="02e3901c0c"><path d="M 376.773438 181.734375 L 372.351562 156.652344 L 398.167969 152.097656 L 402.59375 177.179688 Z M 376.773438 181.734375 "/></clipPath><clipPath id="7f526d5b43"><path d="M 376.773438 181.734375 L 372.351562 156.652344 L 398.167969 152.097656 L 402.59375 177.179688 Z M 376.773438 181.734375 "/></clipPath></defs><g id="6e07bd6b43"><path style=" stroke:none;fill-rule:nonzero;fill:#1f1d44;fill-opacity:1;" d="M 318.882812 295.207031 L 318.882812 295.304688 L 318.75 295.273438 C 318.78125 295.273438 318.816406 295.238281 318.882812 295.207031 Z M 318.882812 295.207031 "/><g clip-rule="nonzero" clip-path="url(#4d0c6c73d5)"><path style=" stroke:none;fill-rule:nonzero;fill:#636ae8;fill-opacity:1;" d="M 387.476562 203.679688 C 382.742188 237.488281 367.0625 267.050781 344.492188 289.296875 C 342.988281 290.796875 341.386719 292.269531 339.820312 293.738281 C 335.867188 297.332031 331.6875 300.726562 327.375 303.863281 C 326.359375 304.613281 325.316406 305.367188 324.269531 306.085938 C 294.609375 326.5 257.503906 336.332031 218.992188 330.941406 C 182.277344 325.816406 150.558594 307.75 127.789062 282.011719 C 106.394531 257.804688 92.9375 226.839844 90.648438 193.421875 C 90.289062 188.328125 90.226562 183.132812 90.421875 177.941406 C 90.453125 176.828125 90.488281 175.75 90.550781 174.640625 C 90.683594 172.386719 90.847656 170.101562 91.074219 167.847656 C 90.78125 162.75 89.539062 157.882812 87.546875 153.472656 C 87.253906 152.851562 86.960938 152.199219 86.632812 151.613281 C 82.386719 143.476562 75.460938 136.976562 67.035156 133.285156 C 79.9375 139.6875 85.195312 154.8125 85.195312 154.8125 C 83.007812 156.316406 78.824219 156.804688 74.253906 156.183594 C 66.609375 155.105469 57.886719 150.859375 55.339844 142.597656 C 51.289062 129.367188 44.265625 124.988281 44.265625 124.988281 C 51.027344 124.171875 56.742188 124.207031 61.675781 124.890625 C 84.769531 128.125 89.113281 145.308594 89.964844 151.058594 C 90.226562 151.480469 90.488281 151.9375 90.714844 152.394531 C 91.433594 153.734375 92.121094 155.171875 92.675781 156.578125 C 93.363281 152.851562 94.179688 149.195312 95.09375 145.601562 C 96.171875 141.386719 97.445312 137.238281 98.882812 133.1875 C 105.382812 103.464844 94.277344 73.769531 72.292969 55.316406 C 93.164062 74.6875 94.699219 106.304688 94.699219 106.304688 C 92.382812 107.058594 89.375 107.15625 85.980469 106.699219 C 69.875 104.445312 45.148438 89.027344 44.886719 66.453125 C 44.59375 39.144531 33.714844 26.898438 33.714844 26.898438 C 109.398438 39.503906 107.800781 88.078125 105.773438 101.832031 C 106.6875 105.421875 107.34375 109.082031 107.765625 112.839844 C 111.035156 106.699219 114.757812 100.816406 118.773438 95.230469 C 124.132812 72.855469 150.425781 0.078125 263.9375 15.921875 C 270.894531 16.902344 278.179688 18.207031 285.824219 19.875 C 285.824219 19.875 260.019531 32.742188 241.59375 77.199219 C 227.550781 111.074219 183.515625 121.363281 154.96875 117.378906 C 146.015625 116.136719 138.570312 113.492188 134.0625 109.703125 C 134.0625 109.703125 157.285156 59.039062 204.128906 41.105469 C 154.933594 57.242188 116.617188 100.164062 108.976562 154.910156 C 102.996094 197.832031 117.109375 238.925781 144.121094 268.652344 C 145.265625 269.925781 146.441406 271.167969 147.617188 272.375 C 168.554688 293.804688 196.484375 308.730469 228.464844 313.171875 C 246.332031 315.65625 263.871094 314.675781 280.402344 310.722656 C 280.402344 310.722656 280.402344 310.722656 280.433594 310.722656 C 291.3125 308.109375 301.796875 304.253906 311.628906 299.191406 C 312.578125 298.703125 313.492188 298.210938 314.4375 297.722656 C 315.875 296.9375 317.3125 296.15625 318.71875 295.304688 L 318.847656 295.339844 L 318.847656 295.238281 C 319.957031 294.585938 321.035156 293.933594 322.113281 293.246094 C 323.976562 292.070312 325.804688 290.894531 327.636719 289.621094 C 329.921875 288.085938 332.109375 286.453125 334.265625 284.722656 C 335.933594 283.414062 337.597656 282.078125 339.199219 280.671875 C 364.21875 259.210938 381.792969 228.898438 386.726562 193.683594 C 388.128906 183.722656 388.425781 173.890625 387.738281 164.253906 C 389.371094 177.058594 389.339844 190.289062 387.476562 203.679688 Z M 387.476562 203.679688 "/></g><path style=" stroke:none;fill-rule:nonzero;fill:#636ae8;fill-opacity:1;" d="M 354.976562 111.335938 L 337.628906 172.84375 L 234.832031 143.835938 L 252.179688 82.328125 C 260.183594 53.945312 289.679688 37.449219 318.0625 45.449219 C 332.242188 49.46875 343.476562 58.84375 350.140625 70.765625 C 356.835938 82.6875 358.960938 97.125 354.976562 111.335938 Z M 354.976562 111.335938 "/><path style=" stroke:none;fill-rule:nonzero;fill:#ffffff;fill-opacity:1;" d="M 319.566406 52.082031 C 295.984375 46.691406 271.550781 62.207031 264.394531 87.523438 L 249.109375 141.746094 L 242.117188 139.789062 L 257.894531 83.929688 C 265.015625 58.710938 291.3125 44.011719 316.527344 51.101562 C 317.542969 51.394531 318.554688 51.722656 319.566406 52.082031 Z M 319.566406 52.082031 "/><path style=" stroke:none;fill-rule:nonzero;fill:#fab816;fill-opacity:1;" d="M 219.644531 274.921875 L 276.808594 246.339844 L 229.050781 150.828125 L 171.886719 179.410156 C 145.527344 192.605469 134.8125 224.652344 148.011719 251.042969 C 154.609375 264.242188 165.910156 273.484375 178.878906 277.796875 C 191.847656 282.140625 206.480469 281.519531 219.644531 274.921875 Z M 219.644531 274.921875 "/><path style=" stroke:none;fill-rule:nonzero;fill:#ffffff;fill-opacity:1;" d="M 154.835938 251.242188 C 145.136719 229.09375 155.785156 202.175781 179.304688 190.417969 L 229.707031 165.234375 L 226.472656 158.734375 L 174.566406 184.703125 C 151.144531 196.429688 141.609375 225.011719 153.335938 248.429688 C 153.757812 249.378906 154.28125 250.324219 154.835938 251.242188 Z M 154.835938 251.242188 "/><path style=" stroke:none;fill-rule:nonzero;fill:#636ae8;fill-opacity:1;" d="M 304.28125 204.757812 C 304.214844 204.691406 304.019531 204.464844 303.691406 204.136719 C 301.863281 202.40625 295.820312 197.507812 283.734375 195.675781 C 272.496094 193.945312 266.125 181.433594 265.210938 172.519531 C 264.984375 170.265625 265.113281 168.207031 265.570312 166.671875 C 287.226562 170.851562 294.382812 188.652344 294.609375 189.242188 C 293.761719 186.074219 292.585938 183.265625 291.148438 180.75 C 290.984375 180.457031 290.820312 180.160156 290.625 179.898438 C 282.980469 167.324219 269.296875 162.945312 263.773438 161.671875 C 299.378906 156.902344 303.660156 193.75 304.179688 202.796875 C 304.214844 203.417969 304.246094 204.070312 304.246094 204.726562 Z M 304.28125 204.757812 "/><path style=" stroke:none;fill-rule:nonzero;fill:#636ae8;fill-opacity:1;" d="M 371.175781 197.210938 C 371.078125 197.210938 370.785156 197.148438 370.296875 197.113281 C 367.746094 196.917969 359.777344 196.984375 349.03125 203.351562 C 339.035156 209.265625 325.902344 203.515625 319.402344 197.050781 C 317.738281 195.414062 316.527344 193.71875 315.910156 192.183594 C 335.734375 181.433594 352.917969 190.875 353.472656 191.203125 C 350.761719 189.242188 347.984375 187.804688 345.242188 186.726562 C 344.914062 186.597656 344.589844 186.5 344.292969 186.367188 C 330.085938 181.371094 316.464844 186.792969 311.269531 189.339844 C 336.324219 162.488281 363.597656 188.851562 369.871094 195.644531 C 370.261719 196.167969 370.6875 196.65625 371.175781 197.210938 Z M 371.175781 197.210938 "/><path style=" stroke:none;fill-rule:nonzero;fill:#636ae8;fill-opacity:1;" d="M 316.429688 265.285156 C 316.367188 265.222656 316.203125 265.023438 315.972656 264.632812 C 314.667969 262.707031 311.105469 256.367188 311.269531 245 C 311.402344 234.417969 300.914062 226.644531 292.847656 224.457031 C 290.789062 223.898438 288.925781 223.703125 287.425781 223.898438 C 287.945312 244.414062 303.203125 253.722656 303.691406 254.015625 C 300.914062 252.742188 298.53125 251.242188 296.441406 249.542969 C 296.210938 249.347656 295.949219 249.148438 295.722656 248.953125 C 285.332031 240.003906 283.4375 226.773438 283.078125 221.515625 C 273.246094 253.496094 306.4375 263.066406 314.632812 264.925781 C 315.222656 265.058594 315.808594 265.15625 316.398438 265.285156 Z M 316.429688 265.285156 "/><path style=" stroke:none;fill-rule:nonzero;fill:#636ae8;fill-opacity:1;" d="M 355.824219 238.925781 C 355.757812 238.894531 355.5625 238.761719 355.203125 238.597656 C 353.375 237.71875 347.429688 235.363281 337.597656 236.902344 C 328.417969 238.304688 320.382812 230.140625 317.507812 223.441406 C 316.757812 221.742188 316.367188 220.109375 316.367188 218.804688 C 334.234375 216.714844 344.195312 228.832031 344.492188 229.222656 C 343.054688 226.96875 341.453125 225.074219 339.722656 223.476562 C 339.523438 223.277344 339.328125 223.117188 339.101562 222.917969 C 330.050781 215.015625 318.324219 214.980469 313.71875 215.339844 C 340.277344 202.863281 352.65625 230.5 355.269531 237.421875 C 355.464844 237.878906 355.628906 238.371094 355.824219 238.925781 Z M 355.824219 238.925781 "/><path style=" stroke:none;fill-rule:nonzero;fill:#636ae8;fill-opacity:1;" d="M 257.175781 174.054688 C 257.175781 174.328125 257.148438 174.597656 257.097656 174.867188 C 257.042969 175.136719 256.964844 175.398438 256.859375 175.652344 C 256.753906 175.90625 256.625 176.148438 256.472656 176.375 C 256.320312 176.605469 256.144531 176.816406 255.953125 177.007812 C 255.757812 177.203125 255.546875 177.375 255.316406 177.53125 C 255.089844 177.683594 254.847656 177.8125 254.59375 177.914062 C 254.34375 178.019531 254.082031 178.101562 253.8125 178.152344 C 253.542969 178.207031 253.269531 178.234375 252.996094 178.234375 C 252.722656 178.234375 252.449219 178.207031 252.179688 178.152344 C 251.910156 178.101562 251.648438 178.019531 251.394531 177.914062 C 251.140625 177.8125 250.902344 177.683594 250.671875 177.53125 C 250.445312 177.375 250.234375 177.203125 250.039062 177.007812 C 249.84375 176.816406 249.671875 176.605469 249.519531 176.375 C 249.367188 176.148438 249.238281 175.90625 249.132812 175.652344 C 249.027344 175.398438 248.949219 175.136719 248.894531 174.867188 C 248.839844 174.597656 248.8125 174.328125 248.8125 174.054688 C 248.8125 173.777344 248.839844 173.507812 248.894531 173.238281 C 248.949219 172.96875 249.027344 172.707031 249.132812 172.453125 C 249.238281 172.199219 249.367188 171.957031 249.519531 171.730469 C 249.671875 171.5 249.84375 171.289062 250.039062 171.097656 C 250.234375 170.902344 250.445312 170.730469 250.671875 170.578125 C 250.902344 170.425781 251.140625 170.296875 251.394531 170.191406 C 251.648438 170.085938 251.910156 170.003906 252.179688 169.953125 C 252.449219 169.898438 252.722656 169.871094 252.996094 169.871094 C 253.269531 169.871094 253.542969 169.898438 253.8125 169.953125 C 254.082031 170.003906 254.34375 170.085938 254.59375 170.191406 C 254.847656 170.296875 255.089844 170.425781 255.316406 170.578125 C 255.546875 170.730469 255.757812 170.902344 255.953125 171.097656 C 256.144531 171.289062 256.320312 171.5 256.472656 171.730469 C 256.625 171.957031 256.753906 172.199219 256.859375 172.453125 C 256.964844 172.707031 257.042969 172.96875 257.097656 173.238281 C 257.148438 173.507812 257.175781 173.777344 257.175781 174.054688 Z M 257.175781 174.054688 "/><path style=" stroke:none;fill-rule:nonzero;fill:#636ae8;fill-opacity:1;" d="M 309.210938 173.039062 C 309.210938 173.429688 309.136719 173.804688 308.988281 174.164062 C 308.839844 174.527344 308.625 174.84375 308.351562 175.117188 C 308.074219 175.394531 307.757812 175.605469 307.398438 175.757812 C 307.035156 175.90625 306.660156 175.980469 306.273438 175.980469 C 305.882812 175.980469 305.507812 175.90625 305.148438 175.757812 C 304.785156 175.605469 304.46875 175.394531 304.191406 175.117188 C 303.917969 174.84375 303.707031 174.527344 303.554688 174.164062 C 303.40625 173.804688 303.332031 173.429688 303.332031 173.039062 C 303.332031 172.652344 303.40625 172.277344 303.554688 171.914062 C 303.707031 171.554688 303.917969 171.238281 304.191406 170.960938 C 304.46875 170.6875 304.785156 170.472656 305.148438 170.324219 C 305.507812 170.175781 305.882812 170.101562 306.273438 170.101562 C 306.660156 170.101562 307.035156 170.175781 307.398438 170.324219 C 307.757812 170.472656 308.074219 170.6875 308.351562 170.960938 C 308.625 171.238281 308.839844 171.554688 308.988281 171.914062 C 309.136719 172.277344 309.210938 172.652344 309.210938 173.039062 Z M 309.210938 173.039062 "/><path style=" stroke:none;fill-rule:nonzero;fill:#636ae8;fill-opacity:1;" d="M 363.664062 207.144531 C 363.664062 207.53125 363.589844 207.90625 363.441406 208.269531 C 363.292969 208.628906 363.078125 208.945312 362.804688 209.222656 C 362.527344 209.496094 362.210938 209.710938 361.851562 209.859375 C 361.488281 210.007812 361.113281 210.082031 360.726562 210.082031 C 360.335938 210.082031 359.960938 210.007812 359.601562 209.859375 C 359.238281 209.710938 358.921875 209.496094 358.644531 209.222656 C 358.371094 208.945312 358.15625 208.628906 358.007812 208.269531 C 357.859375 207.90625 357.785156 207.53125 357.785156 207.144531 C 357.785156 206.753906 357.859375 206.378906 358.007812 206.015625 C 358.15625 205.65625 358.371094 205.339844 358.644531 205.0625 C 358.921875 204.789062 359.238281 204.574219 359.601562 204.425781 C 359.960938 204.277344 360.335938 204.203125 360.726562 204.203125 C 361.113281 204.203125 361.488281 204.277344 361.851562 204.425781 C 362.210938 204.574219 362.527344 204.789062 362.804688 205.0625 C 363.078125 205.339844 363.292969 205.65625 363.441406 206.015625 C 363.589844 206.378906 363.664062 206.753906 363.664062 207.144531 Z M 363.664062 207.144531 "/><path style=" stroke:none;fill-rule:nonzero;fill:#636ae8;fill-opacity:1;" d="M 324.957031 247.15625 C 324.957031 247.546875 324.882812 247.921875 324.734375 248.28125 C 324.582031 248.640625 324.371094 248.960938 324.09375 249.234375 C 323.820312 249.511719 323.5 249.722656 323.140625 249.875 C 322.78125 250.023438 322.40625 250.097656 322.015625 250.097656 C 321.625 250.097656 321.25 250.023438 320.890625 249.875 C 320.53125 249.722656 320.214844 249.511719 319.9375 249.234375 C 319.664062 248.960938 319.449219 248.640625 319.300781 248.28125 C 319.152344 247.921875 319.078125 247.546875 319.078125 247.15625 C 319.078125 246.765625 319.152344 246.390625 319.300781 246.03125 C 319.449219 245.671875 319.664062 245.355469 319.9375 245.078125 C 320.214844 244.804688 320.53125 244.589844 320.890625 244.441406 C 321.25 244.292969 321.625 244.21875 322.015625 244.21875 C 322.40625 244.21875 322.78125 244.292969 323.140625 244.441406 C 323.5 244.589844 323.820312 244.804688 324.09375 245.078125 C 324.371094 245.355469 324.582031 245.671875 324.734375 246.03125 C 324.882812 246.390625 324.957031 246.765625 324.957031 247.15625 Z M 324.957031 247.15625 "/><path style=" stroke:none;fill-rule:nonzero;fill:#636ae8;fill-opacity:1;" d="M 317.148438 205.117188 C 317.148438 205.390625 317.121094 205.664062 317.070312 205.933594 C 317.015625 206.203125 316.9375 206.464844 316.832031 206.71875 C 316.726562 206.972656 316.597656 207.210938 316.445312 207.441406 C 316.292969 207.667969 316.117188 207.878906 315.925781 208.074219 C 315.730469 208.269531 315.519531 208.441406 315.292969 208.59375 C 315.0625 208.746094 314.820312 208.875 314.570312 208.980469 C 314.316406 209.085938 314.054688 209.164062 313.785156 209.21875 C 313.515625 209.273438 313.242188 209.296875 312.96875 209.296875 C 312.695312 209.296875 312.421875 209.273438 312.152344 209.21875 C 311.882812 209.164062 311.621094 209.085938 311.367188 208.980469 C 311.113281 208.875 310.875 208.746094 310.644531 208.59375 C 310.417969 208.441406 310.207031 208.269531 310.011719 208.074219 C 309.816406 207.878906 309.644531 207.667969 309.492188 207.441406 C 309.339844 207.210938 309.210938 206.972656 309.105469 206.71875 C 309 206.464844 308.921875 206.203125 308.867188 205.933594 C 308.8125 205.664062 308.789062 205.390625 308.789062 205.117188 C 308.789062 204.84375 308.8125 204.570312 308.867188 204.300781 C 308.921875 204.03125 309 203.769531 309.105469 203.515625 C 309.210938 203.261719 309.339844 203.023438 309.492188 202.792969 C 309.644531 202.566406 309.816406 202.355469 310.011719 202.160156 C 310.207031 201.964844 310.417969 201.792969 310.644531 201.640625 C 310.875 201.488281 311.113281 201.359375 311.367188 201.253906 C 311.621094 201.148438 311.882812 201.070312 312.152344 201.015625 C 312.421875 200.964844 312.695312 200.9375 312.96875 200.9375 C 313.242188 200.9375 313.515625 200.964844 313.785156 201.015625 C 314.054688 201.070312 314.316406 201.148438 314.570312 201.253906 C 314.820312 201.359375 315.0625 201.488281 315.292969 201.640625 C 315.519531 201.792969 315.730469 201.964844 315.925781 202.160156 C 316.117188 202.355469 316.292969 202.566406 316.445312 202.792969 C 316.597656 203.023438 316.726562 203.265625 316.832031 203.515625 C 316.9375 203.769531 317.015625 204.03125 317.070312 204.300781 C 317.121094 204.570312 317.148438 204.84375 317.148438 205.117188 Z M 317.148438 205.117188 "/><path style=" stroke:none;fill-rule:nonzero;fill:#636ae8;fill-opacity:1;" d="M 283.996094 208.417969 C 283.996094 208.875 283.949219 209.332031 283.859375 209.78125 C 283.769531 210.230469 283.636719 210.667969 283.460938 211.089844 C 283.285156 211.515625 283.070312 211.917969 282.816406 212.300781 C 282.5625 212.683594 282.273438 213.035156 281.945312 213.359375 C 281.621094 213.683594 281.269531 213.972656 280.886719 214.230469 C 280.507812 214.484375 280.101562 214.699219 279.679688 214.875 C 279.253906 215.050781 278.816406 215.183594 278.367188 215.273438 C 277.917969 215.363281 277.464844 215.40625 277.003906 215.40625 C 276.546875 215.40625 276.089844 215.363281 275.640625 215.273438 C 275.191406 215.183594 274.753906 215.050781 274.328125 214.875 C 273.90625 214.699219 273.503906 214.484375 273.121094 214.230469 C 272.738281 213.972656 272.386719 213.683594 272.0625 213.359375 C 271.738281 213.035156 271.445312 212.683594 271.191406 212.300781 C 270.9375 211.917969 270.722656 211.515625 270.546875 211.089844 C 270.371094 210.667969 270.238281 210.230469 270.148438 209.78125 C 270.058594 209.332031 270.015625 208.875 270.015625 208.417969 C 270.015625 207.957031 270.058594 207.503906 270.148438 207.054688 C 270.238281 206.601562 270.371094 206.164062 270.546875 205.742188 C 270.722656 205.316406 270.9375 204.914062 271.191406 204.53125 C 271.445312 204.152344 271.738281 203.796875 272.0625 203.472656 C 272.386719 203.148438 272.738281 202.859375 273.121094 202.605469 C 273.503906 202.347656 273.90625 202.132812 274.328125 201.957031 C 274.753906 201.78125 275.191406 201.648438 275.640625 201.5625 C 276.089844 201.472656 276.546875 201.425781 277.003906 201.425781 C 277.464844 201.425781 277.917969 201.472656 278.367188 201.5625 C 278.816406 201.648438 279.253906 201.78125 279.679688 201.957031 C 280.101562 202.132812 280.507812 202.347656 280.886719 202.605469 C 281.269531 202.859375 281.621094 203.148438 281.945312 203.472656 C 282.273438 203.796875 282.5625 204.152344 282.816406 204.53125 C 283.070312 204.914062 283.285156 205.316406 283.460938 205.742188 C 283.636719 206.164062 283.769531 206.601562 283.859375 207.054688 C 283.949219 207.503906 283.996094 207.957031 283.996094 208.417969 Z M 283.996094 208.417969 "/><g clip-rule="nonzero" clip-path="url(#2e491b3fbc)"><g clip-rule="nonzero" clip-path="url(#02e3901c0c)"><g clip-rule="nonzero" clip-path="url(#7f526d5b43)"><path style=" stroke:none;fill-rule:nonzero;fill:#636ae8;fill-opacity:1;" d="M 401.4375 175.144531 C 399.777344 177.296875 390.328125 171.914062 388.128906 172.328125 C 385.496094 172.828125 380.667969 181.050781 377.972656 179.507812 C 376.226562 178.511719 381.960938 155.0625 384.953125 154.53125 C 389.046875 153.8125 402.066406 174.332031 401.4375 175.144531 Z M 401.4375 175.144531 "/></g></g></g></g></svg>