<svg xmlns="http://www.w3.org/2000/svg" viewBox="0 0 500 500"><path d="M331.6 60.63S254.61 33.25 179 76.84 65.33 206.94 32.59 276.24 18.69 416 76.38 448.18s96.92-15.24 177.85-17.54 102.69 9.26 169.85-36.46 79.29-153.69 26.32-233.58-118.8-99.97-118.8-99.97z" style="fill:#636ae8"/><path d="M331.6 60.63S254.61 33.25 179 76.84 65.33 206.94 32.59 276.24 18.69 416 76.38 448.18s96.92-15.24 177.85-17.54 102.69 9.26 169.85-36.46 79.29-153.69 26.32-233.58-118.8-99.97-118.8-99.97z" style="fill:#fff;opacity:.7000000000000001"/><path style="fill:#fff;stroke:#263238;stroke-linecap:round;stroke-linejoin:round" d="M32.53 132.15h303.84v300.28H32.53z"/><path style="fill:#fff;stroke:#263238;stroke-linecap:round;stroke-linejoin:round" d="M154.12 163.77h19.08v21.73h-19.08z"/><path style="fill:#fff;stroke:#263238;stroke-linecap:round;stroke-linejoin:round" d="M154.12 163.77h12.38v21.73h-12.38z"/><path style="fill:#636ae8;stroke:#263238;stroke-linecap:round;stroke-linejoin:round" d="M155.51 173h9.45v10.2h-9.45z"/><path style="fill:#fff;stroke:#263238;stroke-linecap:round;stroke-linejoin:round" d="M138 163.77h19.08v21.73H138z"/><path style="fill:#fff;stroke:#263238;stroke-linecap:round;stroke-linejoin:round" d="M138 163.77h12.38v21.73H138z"/><path style="fill:#636ae8;stroke:#263238;stroke-linecap:round;stroke-linejoin:round" d="M139.39 173h9.45v10.2h-9.45z"/><path style="fill:#636ae8;stroke:#263238;stroke-linecap:round;stroke-linejoin:round" d="M122.71 153.52h19.08v31.98h-19.08z"/><path style="fill:#fff;stroke:#263238;stroke-linecap:round;stroke-linejoin:round" d="M122.71 153.52h12.38v31.98h-12.38z"/><path style="fill:#636ae8;stroke:#263238;stroke-linecap:round;stroke-linejoin:round" d="M124.1 167.11h9.45v15.01h-9.45z"/><path style="fill:#636ae8;stroke:#263238;stroke-linecap:round;stroke-linejoin:round" d="M106.59 153.52h19.08v31.98h-19.08z"/><path style="fill:#636ae8;stroke:#263238;stroke-linecap:round;stroke-linejoin:round" d="M106.59 153.52h12.38v31.98h-12.38z"/><path style="fill:#fff;stroke:#263238;stroke-linecap:round;stroke-linejoin:round" d="M107.98 167.11h9.45v15.01h-9.45z"/><path style="fill:#fff;stroke:#263238;stroke-linecap:round;stroke-linejoin:round" d="M92.41 163.77h19.08v21.73H92.41z"/><path style="fill:#fff;stroke:#263238;stroke-linecap:round;stroke-linejoin:round" d="M92.41 163.77h12.38v21.73H92.41z"/><path style="fill:#636ae8;stroke:#263238;stroke-linecap:round;stroke-linejoin:round" d="M93.8 173h9.45v10.2H93.8z"/><path style="fill:#fff;stroke:#263238;stroke-linecap:round;stroke-linejoin:round" d="M76.29 163.77h19.08v21.73H76.29z"/><path style="fill:#fff;stroke:#263238;stroke-linecap:round;stroke-linejoin:round" d="M76.29 163.77h12.38v21.73H76.29z"/><path style="fill:#636ae8;stroke:#263238;stroke-linecap:round;stroke-linejoin:round" d="M77.68 173h9.45v10.2h-9.45z"/><path style="fill:#fff;stroke:#263238;stroke-linecap:round;stroke-linejoin:round" d="M61 153.52h19.08v31.98H61z"/><path style="fill:#fff;stroke:#263238;stroke-linecap:round;stroke-linejoin:round" d="M61 153.52h12.38v31.98H61z"/><path style="fill:#636ae8;stroke:#263238;stroke-linecap:round;stroke-linejoin:round" d="M62.39 167.11h9.45v15.01h-9.45z"/><path style="fill:#fff;stroke:#263238;stroke-linecap:round;stroke-linejoin:round" d="M44.88 153.52h19.08v31.98H44.88z"/><path style="fill:#fff;stroke:#263238;stroke-linecap:round;stroke-linejoin:round" d="M44.88 153.52h12.38v31.98H44.88z"/><path style="fill:#636ae8;stroke:#263238;stroke-linecap:round;stroke-linejoin:round" d="M46.27 167.11h9.45v15.01h-9.45z"/><path style="fill:#fff;stroke:#263238;stroke-linecap:round;stroke-linejoin:round" d="M302.55 163.77h19.08v21.73h-19.08z"/><path style="fill:#fff;stroke:#263238;stroke-linecap:round;stroke-linejoin:round" d="M302.55 163.77h12.38v21.73h-12.38z"/><path style="fill:#636ae8;stroke:#263238;stroke-linecap:round;stroke-linejoin:round" d="M303.94 173h9.45v10.2h-9.45z"/><path style="fill:#fff;stroke:#263238;stroke-linecap:round;stroke-linejoin:round" d="M286.43 163.77h19.08v21.73h-19.08z"/><path style="fill:#fff;stroke:#263238;stroke-linecap:round;stroke-linejoin:round" d="M286.43 163.77h12.38v21.73h-12.38z"/><path style="fill:#636ae8;stroke:#263238;stroke-linecap:round;stroke-linejoin:round" d="M287.82 173h9.45v10.2h-9.45z"/><path style="fill:#636ae8;stroke:#263238;stroke-linecap:round;stroke-linejoin:round" d="M271.14 153.52h19.08v31.98h-19.08z"/><path style="fill:#fff;stroke:#263238;stroke-linecap:round;stroke-linejoin:round" d="M271.14 153.52h12.38v31.98h-12.38z"/><path style="fill:#636ae8;stroke:#263238;stroke-linecap:round;stroke-linejoin:round" d="M272.53 167.11h9.45v15.01h-9.45z"/><path style="fill:#636ae8;stroke:#263238;stroke-linecap:round;stroke-linejoin:round" d="M255.02 153.52h19.08v31.98h-19.08z"/><path style="fill:#636ae8;stroke:#263238;stroke-linecap:round;stroke-linejoin:round" d="M255.02 153.52h12.38v31.98h-12.38z"/><path style="fill:#fff;stroke:#263238;stroke-linecap:round;stroke-linejoin:round" d="M256.41 167.11h9.45v15.01h-9.45z"/><path style="fill:#fff;stroke:#263238;stroke-linecap:round;stroke-linejoin:round" d="M240.85 163.77h19.08v21.73h-19.08z"/><path style="fill:#fff;stroke:#263238;stroke-linecap:round;stroke-linejoin:round" d="M240.85 163.77h12.38v21.73h-12.38z"/><path style="fill:#636ae8;stroke:#263238;stroke-linecap:round;stroke-linejoin:round" d="M242.23 173h9.45v10.2h-9.45z"/><path style="fill:#fff;stroke:#263238;stroke-linecap:round;stroke-linejoin:round" d="M224.72 163.77h19.08v21.73h-19.08z"/><path style="fill:#fff;stroke:#263238;stroke-linecap:round;stroke-linejoin:round" d="M224.72 163.77h12.38v21.73h-12.38z"/><path style="fill:#636ae8;stroke:#263238;stroke-linecap:round;stroke-linejoin:round" d="M226.11 173h9.45v10.2h-9.45z"/><path style="fill:#fff;stroke:#263238;stroke-linecap:round;stroke-linejoin:round" d="M209.44 153.52h19.08v31.98h-19.08z"/><path style="fill:#fff;stroke:#263238;stroke-linecap:round;stroke-linejoin:round" d="M209.44 153.52h12.38v31.98h-12.38z"/><path style="fill:#636ae8;stroke:#263238;stroke-linecap:round;stroke-linejoin:round" d="M210.82 167.11h9.45v15.01h-9.45z"/><path style="fill:#fff;stroke:#263238;stroke-linecap:round;stroke-linejoin:round" d="M193.31 153.52h19.08v31.98h-19.08z"/><path style="fill:#fff;stroke:#263238;stroke-linecap:round;stroke-linejoin:round" d="M193.31 153.52h12.38v31.98h-12.38z"/><path style="fill:#636ae8;stroke:#263238;stroke-linecap:round;stroke-linejoin:round" d="M194.7 167.11h9.45v15.01h-9.45z"/><path style="fill:#fff;stroke:#263238;stroke-linecap:round;stroke-linejoin:round" d="M154.12 332.38h19.08v21.73h-19.08z"/><path style="fill:#fff;stroke:#263238;stroke-linecap:round;stroke-linejoin:round" d="M154.12 332.38h12.38v21.73h-12.38z"/><path style="fill:#636ae8;stroke:#263238;stroke-linecap:round;stroke-linejoin:round" d="M155.51 341.61h9.45v10.2h-9.45z"/><path style="fill:#fff;stroke:#263238;stroke-linecap:round;stroke-linejoin:round" d="M138 332.38h19.08v21.73H138z"/><path style="fill:#fff;stroke:#263238;stroke-linecap:round;stroke-linejoin:round" d="M138 332.38h12.38v21.73H138z"/><path style="fill:#636ae8;stroke:#263238;stroke-linecap:round;stroke-linejoin:round" d="M139.39 341.61h9.45v10.2h-9.45z"/><path style="fill:#636ae8;stroke:#263238;stroke-linecap:round;stroke-linejoin:round" d="M122.71 322.13h19.08v31.98h-19.08z"/><path style="fill:#fff;stroke:#263238;stroke-linecap:round;stroke-linejoin:round" d="M122.71 322.13h12.38v31.98h-12.38z"/><path style="fill:#636ae8;stroke:#263238;stroke-linecap:round;stroke-linejoin:round" d="M124.1 335.71h9.45v15.01h-9.45z"/><path style="fill:#636ae8;stroke:#263238;stroke-linecap:round;stroke-linejoin:round" d="M106.59 322.13h19.08v31.98h-19.08z"/><path style="fill:#636ae8;stroke:#263238;stroke-linecap:round;stroke-linejoin:round" d="M106.59 322.13h12.38v31.98h-12.38z"/><path style="fill:#fff;stroke:#263238;stroke-linecap:round;stroke-linejoin:round" d="M107.98 335.71h9.45v15.01h-9.45z"/><path style="fill:#fff;stroke:#263238;stroke-linecap:round;stroke-linejoin:round" d="M92.41 332.38h19.08v21.73H92.41z"/><path style="fill:#fff;stroke:#263238;stroke-linecap:round;stroke-linejoin:round" d="M92.41 332.38h12.38v21.73H92.41z"/><path style="fill:#636ae8;stroke:#263238;stroke-linecap:round;stroke-linejoin:round" d="M93.8 341.61h9.45v10.2H93.8z"/><path style="fill:#fff;stroke:#263238;stroke-linecap:round;stroke-linejoin:round" d="M76.29 332.38h19.08v21.73H76.29z"/><path style="fill:#fff;stroke:#263238;stroke-linecap:round;stroke-linejoin:round" d="M76.29 332.38h12.38v21.73H76.29z"/><path style="fill:#636ae8;stroke:#263238;stroke-linecap:round;stroke-linejoin:round" d="M77.68 341.61h9.45v10.2h-9.45z"/><path style="fill:#fff;stroke:#263238;stroke-linecap:round;stroke-linejoin:round" d="M61 322.13h19.08v31.98H61z"/><path style="fill:#fff;stroke:#263238;stroke-linecap:round;stroke-linejoin:round" d="M61 322.13h12.38v31.98H61z"/><path style="fill:#636ae8;stroke:#263238;stroke-linecap:round;stroke-linejoin:round" d="M62.39 335.71h9.45v15.01h-9.45z"/><path style="fill:#fff;stroke:#263238;stroke-linecap:round;stroke-linejoin:round" d="M44.88 322.13h19.08v31.98H44.88z"/><path style="fill:#fff;stroke:#263238;stroke-linecap:round;stroke-linejoin:round" d="M44.88 322.13h12.38v31.98H44.88z"/><path style="fill:#636ae8;stroke:#263238;stroke-linecap:round;stroke-linejoin:round" d="M46.27 335.71h9.45v15.01h-9.45z"/><path style="fill:#fff;stroke:#263238;stroke-linecap:round;stroke-linejoin:round" d="M302.55 332.38h19.08v21.73h-19.08z"/><path style="fill:#fff;stroke:#263238;stroke-linecap:round;stroke-linejoin:round" d="M302.55 332.38h12.38v21.73h-12.38z"/><path style="fill:#636ae8;stroke:#263238;stroke-linecap:round;stroke-linejoin:round" d="M303.94 341.61h9.45v10.2h-9.45z"/><path style="fill:#fff;stroke:#263238;stroke-linecap:round;stroke-linejoin:round" d="M286.43 332.38h19.08v21.73h-19.08z"/><path style="fill:#fff;stroke:#263238;stroke-linecap:round;stroke-linejoin:round" d="M286.43 332.38h12.38v21.73h-12.38z"/><path style="fill:#636ae8;stroke:#263238;stroke-linecap:round;stroke-linejoin:round" d="M287.82 341.61h9.45v10.2h-9.45z"/><path style="fill:#636ae8;stroke:#263238;stroke-linecap:round;stroke-linejoin:round" d="M271.14 322.13h19.08v31.98h-19.08z"/><path style="fill:#fff;stroke:#263238;stroke-linecap:round;stroke-linejoin:round" d="M271.14 322.13h12.38v31.98h-12.38z"/><path style="fill:#636ae8;stroke:#263238;stroke-linecap:round;stroke-linejoin:round" d="M272.53 335.71h9.45v15.01h-9.45z"/><path style="fill:#636ae8;stroke:#263238;stroke-linecap:round;stroke-linejoin:round" d="M255.02 322.13h19.08v31.98h-19.08z"/><path style="fill:#636ae8;stroke:#263238;stroke-linecap:round;stroke-linejoin:round" d="M255.02 322.13h12.38v31.98h-12.38z"/><path style="fill:#fff;stroke:#263238;stroke-linecap:round;stroke-linejoin:round" d="M256.41 335.71h9.45v15.01h-9.45z"/><path style="fill:#fff;stroke:#263238;stroke-linecap:round;stroke-linejoin:round" d="M240.85 332.38h19.08v21.73h-19.08z"/><path style="fill:#fff;stroke:#263238;stroke-linecap:round;stroke-linejoin:round" d="M240.85 332.38h12.38v21.73h-12.38z"/><path style="fill:#636ae8;stroke:#263238;stroke-linecap:round;stroke-linejoin:round" d="M242.23 341.61h9.45v10.2h-9.45z"/><path style="fill:#fff;stroke:#263238;stroke-linecap:round;stroke-linejoin:round" d="M224.72 332.38h19.08v21.73h-19.08z"/><path style="fill:#fff;stroke:#263238;stroke-linecap:round;stroke-linejoin:round" d="M224.72 332.38h12.38v21.73h-12.38z"/><path style="fill:#636ae8;stroke:#263238;stroke-linecap:round;stroke-linejoin:round" d="M226.11 341.61h9.45v10.2h-9.45z"/><path style="fill:#fff;stroke:#263238;stroke-linecap:round;stroke-linejoin:round" d="M209.44 322.13h19.08v31.98h-19.08z"/><path style="fill:#fff;stroke:#263238;stroke-linecap:round;stroke-linejoin:round" d="M209.44 322.13h12.38v31.98h-12.38z"/><path style="fill:#636ae8;stroke:#263238;stroke-linecap:round;stroke-linejoin:round" d="M210.82 335.71h9.45v15.01h-9.45z"/><path style="fill:#fff;stroke:#263238;stroke-linecap:round;stroke-linejoin:round" d="M193.31 322.13h19.08v31.98h-19.08z"/><path style="fill:#fff;stroke:#263238;stroke-linecap:round;stroke-linejoin:round" d="M193.31 322.13h12.38v31.98h-12.38z"/><path style="fill:#636ae8;stroke:#263238;stroke-linecap:round;stroke-linejoin:round" d="M194.7 335.71h9.45v15.01h-9.45zM45 217.37h6.39a5.42 5.42 0 0 1 5.42 5.42v18.48h0H39.6h0v-18.48a5.42 5.42 0 0 1 5.4-5.42z"/><path style="fill:#263238;stroke:#263238;stroke-linecap:round;stroke-linejoin:round" d="M45.02 210.7h7.09v6.67h-7.09z"/><path style="fill:#fff;stroke:#263238;stroke-linecap:round;stroke-linejoin:round" d="M40.99 224.6h11.12v11.12H40.99z"/><path d="M65.31 217.37h6.39a5.42 5.42 0 0 1 5.42 5.42v18.48h0-17.23 0v-18.48a5.42 5.42 0 0 1 5.42-5.42z" style="fill:#636ae8;stroke:#263238;stroke-linecap:round;stroke-linejoin:round"/><path style="fill:#263238;stroke:#263238;stroke-linecap:round;stroke-linejoin:round" d="M65.31 210.7h7.09v6.67h-7.09z"/><path style="fill:#fff;stroke:#263238;stroke-linecap:round;stroke-linejoin:round" d="M61.28 224.6H72.4v11.12H61.28z"/><path d="M85.6 204.58H92a5.42 5.42 0 0 1 5.41 5.42v31.27h0-17.23 0V210a5.42 5.42 0 0 1 5.42-5.42z" style="fill:#636ae8;stroke:#263238;stroke-linecap:round;stroke-linejoin:round"/><path style="fill:#263238;stroke:#263238;stroke-linecap:round;stroke-linejoin:round" d="M85.6 197.91h7.09v6.67H85.6z"/><path style="fill:#fff;stroke:#263238;stroke-linecap:round;stroke-linejoin:round" d="M81.57 211.81h11.12v23.9H81.57z"/><path d="M105.89 217.37h6.39a5.42 5.42 0 0 1 5.42 5.42v18.48h0-17.23 0v-18.48a5.42 5.42 0 0 1 5.42-5.42z" style="fill:#636ae8;stroke:#263238;stroke-linecap:round;stroke-linejoin:round"/><path style="fill:#263238;stroke:#263238;stroke-linecap:round;stroke-linejoin:round" d="M105.89 210.7h7.09v6.67h-7.09z"/><path style="fill:#fff;stroke:#263238;stroke-linecap:round;stroke-linejoin:round" d="M101.86 224.6h11.12v11.12h-11.12z"/><path d="M126.18 217.37h6.39a5.42 5.42 0 0 1 5.42 5.42v18.48h0-17.23 0v-18.48a5.42 5.42 0 0 1 5.42-5.42z" style="fill:#636ae8;stroke:#263238;stroke-linecap:round;stroke-linejoin:round"/><path style="fill:#263238;stroke:#263238;stroke-linecap:round;stroke-linejoin:round" d="M126.18 210.7h7.09v6.67h-7.09z"/><path style="fill:#fff;stroke:#263238;stroke-linecap:round;stroke-linejoin:round" d="M122.15 224.6h11.12v11.12h-11.12z"/><path d="M146.48 210.7h6.39a5.42 5.42 0 0 1 5.42 5.42v25.16h0-17.24 0v-25.16a5.42 5.42 0 0 1 5.43-5.42z" style="fill:#636ae8;stroke:#263238;stroke-linecap:round;stroke-linejoin:round"/><path style="fill:#263238;stroke:#263238;stroke-linecap:round;stroke-linejoin:round" d="M146.48 204.03h7.09v6.67h-7.09z"/><path style="fill:#fff;stroke:#263238;stroke-linecap:round;stroke-linejoin:round" d="M142.44 217.92h11.12v17.79h-11.12z"/><path d="M200.45 217.37h6.39a5.42 5.42 0 0 1 5.42 5.42v18.48h0H195h0v-18.48a5.42 5.42 0 0 1 5.45-5.42z" style="fill:#636ae8;stroke:#263238;stroke-linecap:round;stroke-linejoin:round"/><path style="fill:#263238;stroke:#263238;stroke-linecap:round;stroke-linejoin:round" d="M200.45 210.7h7.09v6.67h-7.09z"/><path style="fill:#fff;stroke:#263238;stroke-linecap:round;stroke-linejoin:round" d="M196.42 224.6h11.12v11.12h-11.12z"/><path d="M220.74 217.37h6.39a5.42 5.42 0 0 1 5.42 5.42v18.48h0-17.23 0v-18.48a5.42 5.42 0 0 1 5.42-5.42z" style="fill:#636ae8;stroke:#263238;stroke-linecap:round;stroke-linejoin:round"/><path style="fill:#263238;stroke:#263238;stroke-linecap:round;stroke-linejoin:round" d="M220.74 210.7h7.09v6.67h-7.09z"/><path style="fill:#fff;stroke:#263238;stroke-linecap:round;stroke-linejoin:round" d="M216.71 224.6h11.12v11.12h-11.12z"/><path d="M241 204.58h6.39a5.42 5.42 0 0 1 5.42 5.42v31.27h0-17.19 0V210a5.42 5.42 0 0 1 5.38-5.42z" style="fill:#636ae8;stroke:#263238;stroke-linecap:round;stroke-linejoin:round"/><path style="fill:#263238;stroke:#263238;stroke-linecap:round;stroke-linejoin:round" d="M241.04 197.91h7.09v6.67h-7.09z"/><path style="fill:#fff;stroke:#263238;stroke-linecap:round;stroke-linejoin:round" d="M237.01 211.81h11.12v23.9h-11.12z"/><path d="M261.33 217.37h6.39a5.42 5.42 0 0 1 5.42 5.42v18.48h0-17.23 0v-18.48a5.42 5.42 0 0 1 5.42-5.42z" style="fill:#636ae8;stroke:#263238;stroke-linecap:round;stroke-linejoin:round"/><path style="fill:#263238;stroke:#263238;stroke-linecap:round;stroke-linejoin:round" d="M261.33 210.7h7.09v6.67h-7.09z"/><path style="fill:#fff;stroke:#263238;stroke-linecap:round;stroke-linejoin:round" d="M257.3 224.6h11.12v11.12H257.3z"/><path d="M281.62 217.37H288a5.42 5.42 0 0 1 5.42 5.42v18.48h0-17.22 0v-18.48a5.42 5.42 0 0 1 5.42-5.42z" style="fill:#636ae8;stroke:#263238;stroke-linecap:round;stroke-linejoin:round"/><path style="fill:#263238;stroke:#263238;stroke-linecap:round;stroke-linejoin:round" d="M281.62 210.7h7.09v6.67h-7.09z"/><path style="fill:#fff;stroke:#263238;stroke-linecap:round;stroke-linejoin:round" d="M277.59 224.6h11.12v11.12h-11.12z"/><path d="M301.91 210.7h6.39a5.42 5.42 0 0 1 5.42 5.42v25.16h0-17.23 0v-25.16a5.42 5.42 0 0 1 5.42-5.42z" style="fill:#636ae8;stroke:#263238;stroke-linecap:round;stroke-linejoin:round"/><path style="fill:#263238;stroke:#263238;stroke-linecap:round;stroke-linejoin:round" d="M301.91 204.03H309v6.67h-7.09z"/><path style="fill:#fff;stroke:#263238;stroke-linecap:round;stroke-linejoin:round" d="M297.88 217.92H309v17.79h-11.12z"/><path d="M45 387.42h6.39a5.42 5.42 0 0 1 5.42 5.42v18.48h0H39.6h0v-18.48a5.42 5.42 0 0 1 5.4-5.42z" style="fill:#636ae8;stroke:#263238;stroke-linecap:round;stroke-linejoin:round"/><path style="fill:#263238;stroke:#263238;stroke-linecap:round;stroke-linejoin:round" d="M45.02 380.75h7.09v6.67h-7.09z"/><path style="fill:#fff;stroke:#263238;stroke-linecap:round;stroke-linejoin:round" d="M40.99 394.64h11.12v11.12H40.99z"/><path d="M65.31 387.42h6.39a5.42 5.42 0 0 1 5.42 5.42v18.48h0-17.23 0v-18.48a5.42 5.42 0 0 1 5.42-5.42z" style="fill:#636ae8;stroke:#263238;stroke-linecap:round;stroke-linejoin:round"/><path style="fill:#263238;stroke:#263238;stroke-linecap:round;stroke-linejoin:round" d="M65.31 380.75h7.09v6.67h-7.09z"/><path style="fill:#fff;stroke:#263238;stroke-linecap:round;stroke-linejoin:round" d="M61.28 394.64H72.4v11.12H61.28z"/><path d="M85.6 374.63H92a5.42 5.42 0 0 1 5.42 5.42v31.27h0-17.24 0v-31.27a5.42 5.42 0 0 1 5.42-5.42z" style="fill:#636ae8;stroke:#263238;stroke-linecap:round;stroke-linejoin:round"/><path style="fill:#263238;stroke:#263238;stroke-linecap:round;stroke-linejoin:round" d="M85.6 367.96h7.09v6.67H85.6z"/><path style="fill:#fff;stroke:#263238;stroke-linecap:round;stroke-linejoin:round" d="M81.57 381.86h11.12v23.9H81.57z"/><path d="M105.89 387.42h6.39a5.42 5.42 0 0 1 5.42 5.42v18.48h0-17.23 0v-18.48a5.42 5.42 0 0 1 5.42-5.42z" style="fill:#636ae8;stroke:#263238;stroke-linecap:round;stroke-linejoin:round"/><path style="fill:#263238;stroke:#263238;stroke-linecap:round;stroke-linejoin:round" d="M105.89 380.75h7.09v6.67h-7.09z"/><path style="fill:#fff;stroke:#263238;stroke-linecap:round;stroke-linejoin:round" d="M101.86 394.64h11.12v11.12h-11.12z"/><path d="M126.18 387.42h6.39a5.42 5.42 0 0 1 5.42 5.42v18.48h0-17.23 0v-18.48a5.42 5.42 0 0 1 5.42-5.42z" style="fill:#636ae8;stroke:#263238;stroke-linecap:round;stroke-linejoin:round"/><path style="fill:#263238;stroke:#263238;stroke-linecap:round;stroke-linejoin:round" d="M126.18 380.75h7.09v6.67h-7.09z"/><path style="fill:#fff;stroke:#263238;stroke-linecap:round;stroke-linejoin:round" d="M122.15 394.64h11.12v11.12h-11.12z"/><path d="M146.48 380.75h6.39a5.42 5.42 0 0 1 5.42 5.42v25.16h0-17.24 0v-25.16a5.42 5.42 0 0 1 5.43-5.42z" style="fill:#636ae8;stroke:#263238;stroke-linecap:round;stroke-linejoin:round"/><path style="fill:#263238;stroke:#263238;stroke-linecap:round;stroke-linejoin:round" d="M146.48 374.08h7.09v6.67h-7.09z"/><path style="fill:#fff;stroke:#263238;stroke-linecap:round;stroke-linejoin:round" d="M142.44 387.97h11.12v17.79h-11.12z"/><path d="M200.45 387.42h6.39a5.42 5.42 0 0 1 5.42 5.42v18.48h0H195h0v-18.48a5.42 5.42 0 0 1 5.45-5.42z" style="fill:#636ae8;stroke:#263238;stroke-linecap:round;stroke-linejoin:round"/><path style="fill:#263238;stroke:#263238;stroke-linecap:round;stroke-linejoin:round" d="M200.45 380.75h7.09v6.67h-7.09z"/><path style="fill:#fff;stroke:#263238;stroke-linecap:round;stroke-linejoin:round" d="M196.42 394.64h11.12v11.12h-11.12z"/><path d="M220.74 387.42h6.39a5.42 5.42 0 0 1 5.42 5.42v18.48h0-17.23 0v-18.48a5.42 5.42 0 0 1 5.42-5.42z" style="fill:#636ae8;stroke:#263238;stroke-linecap:round;stroke-linejoin:round"/><path style="fill:#263238;stroke:#263238;stroke-linecap:round;stroke-linejoin:round" d="M220.74 380.75h7.09v6.67h-7.09z"/><path style="fill:#fff;stroke:#263238;stroke-linecap:round;stroke-linejoin:round" d="M216.71 394.64h11.12v11.12h-11.12z"/><path d="M241 374.63h6.39a5.42 5.42 0 0 1 5.42 5.42v31.27h0-17.19 0v-31.27a5.42 5.42 0 0 1 5.38-5.42z" style="fill:#636ae8;stroke:#263238;stroke-linecap:round;stroke-linejoin:round"/><path style="fill:#263238;stroke:#263238;stroke-linecap:round;stroke-linejoin:round" d="M241.04 367.96h7.09v6.67h-7.09z"/><path style="fill:#fff;stroke:#263238;stroke-linecap:round;stroke-linejoin:round" d="M237.01 381.86h11.12v23.9h-11.12z"/><path d="M261.33 387.42h6.39a5.42 5.42 0 0 1 5.42 5.42v18.48h0-17.23 0v-18.48a5.42 5.42 0 0 1 5.42-5.42z" style="fill:#636ae8;stroke:#263238;stroke-linecap:round;stroke-linejoin:round"/><path style="fill:#263238;stroke:#263238;stroke-linecap:round;stroke-linejoin:round" d="M261.33 380.75h7.09v6.67h-7.09z"/><path style="fill:#fff;stroke:#263238;stroke-linecap:round;stroke-linejoin:round" d="M257.3 394.64h11.12v11.12H257.3z"/><path d="M281.62 387.42H288a5.42 5.42 0 0 1 5.42 5.42v18.48h0-17.22 0v-18.48a5.42 5.42 0 0 1 5.42-5.42z" style="fill:#636ae8;stroke:#263238;stroke-linecap:round;stroke-linejoin:round"/><path style="fill:#263238;stroke:#263238;stroke-linecap:round;stroke-linejoin:round" d="M281.62 380.75h7.09v6.67h-7.09z"/><path style="fill:#fff;stroke:#263238;stroke-linecap:round;stroke-linejoin:round" d="M277.59 394.64h11.12v11.12h-11.12z"/><path d="M301.91 380.75h6.39a5.42 5.42 0 0 1 5.42 5.42v25.16h0-17.23 0v-25.16a5.42 5.42 0 0 1 5.42-5.42z" style="fill:#636ae8;stroke:#263238;stroke-linecap:round;stroke-linejoin:round"/><path style="fill:#263238;stroke:#263238;stroke-linecap:round;stroke-linejoin:round" d="M301.91 374.08H309v6.67h-7.09z"/><path style="fill:#fff;stroke:#263238;stroke-linecap:round;stroke-linejoin:round" d="M297.88 387.97H309v17.79h-11.12zM56.91 263.41H41.06l3.96 34.02h7.93l3.96-34.02z"/><path style="fill:#263238;stroke:#263238;stroke-linecap:round;stroke-linejoin:round" d="m44.39 292.02.63 5.41h7.93l.63-5.41h-9.19z"/><path style="fill:#636ae8;stroke:#263238;stroke-linecap:round;stroke-linejoin:round" d="M45.31 269.98h6.57v16.24h-6.57z"/><path style="fill:#fff;stroke:#263238;stroke-linecap:round;stroke-linejoin:round" d="M76.25 263.41H60.39l3.97 34.02h7.92l3.97-34.02z"/><path style="fill:#263238;stroke:#263238;stroke-linecap:round;stroke-linejoin:round" d="m63.73 292.02.63 5.41h7.92l.63-5.41h-9.18z"/><path style="fill:#636ae8;stroke:#263238;stroke-linecap:round;stroke-linejoin:round" d="M64.65 269.98h6.57v16.24h-6.57z"/><path style="fill:#fff;stroke:#263238;stroke-linecap:round;stroke-linejoin:round" d="M95.58 263.41H79.72l3.97 34.02h7.92l3.97-34.02z"/><path style="fill:#263238;stroke:#263238;stroke-linecap:round;stroke-linejoin:round" d="m83.06 292.02.63 5.41h7.92l.64-5.41h-9.19z"/><path style="fill:#636ae8;stroke:#263238;stroke-linecap:round;stroke-linejoin:round" d="M83.98 269.98h6.57v16.24h-6.57z"/><path style="fill:#fff;stroke:#263238;stroke-linecap:round;stroke-linejoin:round" d="M114.91 263.41H99.06l3.96 34.02h7.93l3.96-34.02z"/><path style="fill:#263238;stroke:#263238;stroke-linecap:round;stroke-linejoin:round" d="m102.39 292.02.63 5.41h7.93l.63-5.41h-9.19z"/><path style="fill:#636ae8;stroke:#263238;stroke-linecap:round;stroke-linejoin:round" d="M103.31 269.98h6.57v16.24h-6.57z"/><path style="fill:#263238;stroke:#263238;stroke-linecap:round;stroke-linejoin:round" d="M119.58 279.26h16.76v5.8h-16.76z"/><path style="fill:#636ae8;stroke:#263238;stroke-linecap:round;stroke-linejoin:round" d="M117.04 285.06h21.85v12.76h-21.85z"/><path style="fill:#fff;stroke:#263238;stroke-linecap:round;stroke-linejoin:round" d="M120.1 287.77h15.71v7.35H120.1z"/><path style="fill:#263238;stroke:#263238;stroke-linecap:round;stroke-linejoin:round" d="M144.33 279.26h16.76v5.8h-16.76z"/><path style="fill:#636ae8;stroke:#263238;stroke-linecap:round;stroke-linejoin:round" d="M141.78 285.06h21.85v12.76h-21.85z"/><path style="fill:#fff;stroke:#263238;stroke-linecap:round;stroke-linejoin:round" d="M144.85 287.77h15.71v7.35h-15.71zM211.57 263.41h-15.85l3.96 34.02h7.93l3.96-34.02z"/><path style="fill:#263238;stroke:#263238;stroke-linecap:round;stroke-linejoin:round" d="m199.05 292.02.63 5.41h7.93l.63-5.41h-9.19z"/><path style="fill:#636ae8;stroke:#263238;stroke-linecap:round;stroke-linejoin:round" d="M199.97 269.98h6.57v16.24h-6.57z"/><path style="fill:#fff;stroke:#263238;stroke-linecap:round;stroke-linejoin:round" d="M230.91 263.41h-15.86l3.97 34.02h7.92l3.97-34.02z"/><path style="fill:#263238;stroke:#263238;stroke-linecap:round;stroke-linejoin:round" d="m218.39 292.02.63 5.41h7.92l.63-5.41h-9.18z"/><path style="fill:#636ae8;stroke:#263238;stroke-linecap:round;stroke-linejoin:round" d="M219.31 269.98h6.57v16.24h-6.57z"/><path style="fill:#fff;stroke:#263238;stroke-linecap:round;stroke-linejoin:round" d="M250.24 263.41h-15.85l3.96 34.02h7.93l3.96-34.02z"/><path style="fill:#263238;stroke:#263238;stroke-linecap:round;stroke-linejoin:round" d="m237.72 292.02.63 5.41h7.93l.63-5.41h-9.19z"/><path style="fill:#636ae8;stroke:#263238;stroke-linecap:round;stroke-linejoin:round" d="M238.64 269.98h6.57v16.24h-6.57z"/><path style="fill:#fff;stroke:#263238;stroke-linecap:round;stroke-linejoin:round" d="M269.57 263.41h-15.85l3.96 34.02h7.93l3.96-34.02z"/><path style="fill:#263238;stroke:#263238;stroke-linecap:round;stroke-linejoin:round" d="m257.05 292.02.63 5.41h7.93l.63-5.41h-9.19z"/><path style="fill:#636ae8;stroke:#263238;stroke-linecap:round;stroke-linejoin:round" d="M257.97 269.98h6.57v16.24h-6.57z"/><path style="fill:#263238;stroke:#263238;stroke-linecap:round;stroke-linejoin:round" d="M274.24 279.26H291v5.8h-16.76z"/><path style="fill:#636ae8;stroke:#263238;stroke-linecap:round;stroke-linejoin:round" d="M271.7 285.06h21.85v12.76H271.7z"/><path style="fill:#fff;stroke:#263238;stroke-linecap:round;stroke-linejoin:round" d="M274.77 287.77h15.71v7.35h-15.71z"/><path style="fill:#263238;stroke:#263238;stroke-linecap:round;stroke-linejoin:round" d="M298.99 279.26h16.76v5.8h-16.76z"/><path style="fill:#636ae8;stroke:#263238;stroke-linecap:round;stroke-linejoin:round" d="M296.44 285.06h21.85v12.76h-21.85z"/><path style="fill:#fff;stroke:#263238;stroke-linecap:round;stroke-linejoin:round" d="M299.51 287.77h15.71v7.35h-15.71z"/><path transform="rotate(90 185.18 187.94)" style="fill:#fff;stroke:#263238;stroke-linecap:round;stroke-linejoin:round" d="M181.56 37.03h7.24v301.82h-7.24z"/><path transform="rotate(90 185.185 244.395)" style="fill:#fff;stroke:#263238;stroke-linecap:round;stroke-linejoin:round" d="M181.56 93.48h7.24V395.3h-7.24z"/><path transform="rotate(90 185.18 300.85)" style="fill:#fff;stroke:#263238;stroke-linecap:round;stroke-linejoin:round" d="M181.56 149.94h7.24v301.82h-7.24z"/><path transform="rotate(90 185.18 357.31)" style="fill:#fff;stroke:#263238;stroke-linecap:round;stroke-linejoin:round" d="M181.56 206.4h7.24v301.82h-7.24z"/><path transform="rotate(90 185.185 413.165)" style="fill:#fff;stroke:#263238;stroke-linecap:round;stroke-linejoin:round" d="M181.56 262.25h7.24v301.82h-7.24z"/><path style="fill:#fff;stroke:#263238;stroke-linecap:round;stroke-linejoin:round" d="M28.48 141.62h7.24v292.41h-7.24zM180.48 141.62h7.24v292.41h-7.24zM332.48 141.62h7.24v292.41h-7.24z"/><path style="fill:#636ae8;stroke:#263238;stroke-linecap:round;stroke-linejoin:round" d="M21.24 111.22h321.37v31.12H21.24z"/><path style="fill:#fff;stroke:#263238;stroke-linecap:round;stroke-linejoin:round" d="M115.34 111.22h133.18v31.12H115.34z"/><path style="fill:#fff" d="M77.45 123.14h-6.73v-6.74h-6.94v6.74h-6.74v6.94h6.74v6.73h6.94v-6.73h6.73v-6.94zM304.83 123.14h-6.73v-6.74h-6.94v6.74h-6.74v6.94h6.74v6.73h6.94v-6.73h6.73v-6.94z"/><path d="M136.18 116c3.44 0 4.91 2 4.91 5.35V124c0 3.47-1.62 5.28-5.1 5.28h-2.15v8.64h-2.44V116zm-.18 11.07c1.82 0 2.69-.84 2.69-2.94v-2.91c0-2-.72-3-2.5-3h-2.34v8.85zM145.54 128v9.86h-2.44V116h2.44v9.85h5.38V116h2.44v21.9h-2.44V128zM158.33 133.49l-.84 4.41h-2.25l4.19-21.9H163l4.19 21.9h-2.44l-.84-4.41zm.32-2.1h4.88l-2.48-12.64zM173.94 116c3.45 0 4.88 1.75 4.88 5v1.79c0 2.41-.84 3.91-2.72 4.5 2 .6 2.76 2.22 2.76 4.57v3.41a5.57 5.57 0 0 0 .43 2.63h-2.47a5.8 5.8 0 0 1-.4-2.66v-3.44c0-2.47-1.16-3.26-3.19-3.26h-1.73v9.36h-2.43V116zm-.62 10.32c1.94 0 3.1-.62 3.1-3v-2.1c0-2-.72-3-2.54-3h-2.38v8.1zM189.46 137.87h-2.34l-3.63-17.43v17.46h-2.13V116h3.41l3.6 17.49 3.47-17.49h3.41v21.9h-2.31v-17.61zM200.23 133.49l-.85 4.41h-2.25l4.19-21.9h3.54l4.19 21.9h-2.44l-.85-4.41zm.31-2.1h4.88L203 118.75zM220.62 121.29v2h-2.31v-2.1c0-2-.78-3.16-2.57-3.16s-2.56 1.19-2.56 3.16v11.58c0 2 .81 3.15 2.56 3.15s2.57-1.18 2.57-3.15v-2.85h2.31v2.72c0 3.32-1.56 5.51-4.94 5.51s-4.91-2.19-4.91-5.51v-11.35c0-3.32 1.56-5.51 4.91-5.51s4.94 2.22 4.94 5.51zM226.38 130l-4.63-14h2.54l3.41 10.76 3.44-10.76h2.31l-4.66 14v7.86h-2.41z" style="fill:#636ae8"/><g><path style="fill:none;stroke:#263238;stroke-linecap:round;stroke-linejoin:round" d="M358.31 138.33h105.97v158.08H358.31z"/><path d="m426.35 178.52-36.19 22.39a16.5 16.5 0 0 1-22.72-5.35h0a16.5 16.5 0 0 1 5.35-22.71l36.21-22.4a16.51 16.51 0 0 1 22.72 5.35h0a16.5 16.5 0 0 1-5.37 22.72z" style="fill:none;stroke:#263238;stroke-linecap:round;stroke-linejoin:round"/><path d="m409 150.45-18.46 11.43 17.37 28.06 18.46-11.42A16.5 16.5 0 1 0 409 150.45zM436.84 247.77l-40.2-14a16.49 16.49 0 0 1-10.17-21h0a16.49 16.49 0 0 1 21-10.17l40.2 14a16.5 16.5 0 0 1 10.17 21h0a16.5 16.5 0 0 1-21 10.17z" style="fill:none;stroke:#263238;stroke-linecap:round;stroke-linejoin:round"/><path d="m447.67 216.59-20.51-7.13-10.83 31.18 20.51 7.13a16.5 16.5 0 0 0 10.83-31.18zM442.67 261.67h5.11M373.95 261.67h63.08M373.95 272.96h73.83M386.57 284.26h61.21M373.95 284.26h5.21M419.38 246.91h4.95M371.34 208.69v38.22h41.69M441.26 151.74h-4.77M452.99 213.03v-61.29h-6.09M398.27 151.36h-27.8v18.24" style="fill:none;stroke:#263238;stroke-linecap:round;stroke-linejoin:round"/></g><g><path d="M295.4 273.88c-3.9 4.3-18.31 4.91-30.95 4.86s-28.7-7.19-34.07-14.86 5.47-23.32 7.37-26.95 2.66-21.46 13.55-26.69 33.82-2.51 41.27 3 23.15 15.14 25.71 24.67-6.37 9.64-7.13 10.1-2 .91-3.92 4.55a7.17 7.17 0 0 1-5.86 3.71z" style="fill:#263238;stroke:#263238;stroke-linecap:round;stroke-linejoin:round"/><path d="M307.17 235c7.24 1.91 12 4.24 8.39 6.78M278 230s14.28 1.57 25.53 4.08M271.84 227.66s18.33-6.11 35.73 1.41M293.15 219.27a20.63 20.63 0 0 1 2.66.87M265.26 225.78s11.07-7.59 22.83-7.21M236.9 262.44a18 18 0 0 1-4.07.94M270 235.65s-13.16 13.16-21.62 20.21a37.8 37.8 0 0 1-8.05 5.21M261.5 232.83s-13.63 15.51-25.85 20.17" style="fill:none;stroke:#545454;stroke-linecap:round;stroke-linejoin:round"/><path d="M387 413.52s4.71 4.25 5.33 5.46 2.93 6.37 2.08 6.5-2.9-3.16-3.51-4.54-3-5-3-5z" style="fill:#fff;stroke:#263238;stroke-linecap:round;stroke-linejoin:round"/><path d="M384.05 410.53s3.25 3 3.87 4.21 3.52 12.13 3.52 12.13-1.4 1.12-2.38.58-4.41-11.33-4.41-11.33z" style="fill:#fff;stroke:#263238;stroke-linecap:round;stroke-linejoin:round"/><path d="M376.66 405.82s5.94 3.13 7.39 4.71 3.75 14.67 4.21 15.87-2.29 2.09-2.94 1.56S382 416 382 416l-5.36-8.66z" style="fill:#fff;stroke:#263238;stroke-linecap:round;stroke-linejoin:round"/><path d="m362.56 404.37 11.24.22a6.21 6.21 0 0 1 4.89 2.56l4.72 6.56.81 13.05A1.19 1.19 0 0 1 383 428h0a1.22 1.22 0 0 1-1.1-.88l-3.27-11.8-4.29-2s-6.57 3.6-6.43 4.28 3.82 5.23 4.62 6.27 2.75 2.82 2.2 3.81-3.88 0-5-.73-7.23-8.41-9.52-10-4.75-3.25-4.75-3.25z" style="fill:#fff;stroke:#263238;stroke-linecap:round;stroke-linejoin:round"/><path style="fill:#263238;stroke:#263238;stroke-linecap:round;stroke-linejoin:round" d="m360.55 407.39-1.53 8.45-2.56-2.05 4.09-6.4"/><path d="M312 298.09s10.11 2.7 11.53 9.3S331.2 379 331.2 379l33.5 21.77-10.14 15.65-31.81-6.25L304.12 296z" style="fill:#fff;stroke:#263238;stroke-linecap:round;stroke-linejoin:round"/><path d="M331.2 379s-4.43 2.34-6 4.44" style="fill:none;stroke:#263238;stroke-linecap:round;stroke-linejoin:round"/><path d="m317.5 313.27 8.94 120.14-112.91-4.6s3.18-124.12 4.54-126.78 12.32-3.93 21.37-6.77 25.19-8.26 25.19-8.26l21.24.9c5.94.26 30.49 11.73 30.45 12.72" style="fill:#fff;stroke:#263238;stroke-linecap:round;stroke-linejoin:round"/><path style="fill:#263238;stroke:#263238;stroke-linecap:round;stroke-linejoin:round" d="M307.32 336.98h11.21v4.34h-11.21z"/><path style="fill:#fff;stroke:#263238;stroke-linecap:round;stroke-linejoin:round" d="m252.72 291.87 1.06 44.43 12.76 3.03-7.19 11.34 17.93 49.87M290.77 289.3s11.83 24.56 15.2 32.64 4.75 10.62 4.75 10.62l-8.44 5.84 8.63 6.82-8.07 43.28"/><path d="M257 290s17.1 45.91 18.45 60.59 4.65 81.78 4.65 81.78l22 1s-.82-67-4.2-91.92-8.19-45.73-9.07-48.24a24.55 24.55 0 0 0-3-5.34l-13.58-2z" style="fill:#636ae8;stroke:#263238;stroke-linecap:round;stroke-linejoin:round"/><path style="fill:none;stroke:#263238;stroke-linecap:round;stroke-linejoin:round" d="m298.96 365.08-8.39 17.32M295.81 365.08l-12.06 25.19"/><path d="M264.1 269.55s.07 15.63-.25 17.35-5.33 1.1-5.43 3.33 7.5 23.29 14.9 29.81 9.68 5.62 11.88.51 2.85-15.15 3-18.37c.06-1.43.36-5 0-6.74-.52-2.45-1.18-5.95-3.25-7.37l-.79-.54.33-7.67s-12.61-1.04-20.39-10.31z" style="fill:#fff;stroke:#263238;stroke-linecap:round;stroke-linejoin:round"/><path d="m284.15 287.53.33-7.67s-12.6-1-20.38-10.31v.1l.52 2.4s4.9 14.41 20.32 16z" style="fill:#263238;stroke:#263238;stroke-linecap:round;stroke-linejoin:round"/><path d="M276.16 231.64s-14-4.32-14.61-6.33.06-6.94-1.72-6-1.54 6.87.86 8.71 15.68 4.4 16.59 6.42-.4 3.45-4.87 9.21S248.49 258 248.4 260s2.13 8 5.59 8.42a10.33 10.33 0 0 0 6.26-1.46 30.21 30.21 0 0 0 10.42 11.36c7 4.27 17.1 5.94 23.23 1.75 3.35-2.3 9.26-13.49 9.71-18.18s-2.05-10-2-12 .19-4.45.19-4.45-17.43-9.68-19.82-11.77a9.58 9.58 0 0 0-5.82-2.03z" style="fill:#fff;stroke:#263238;stroke-linecap:round;stroke-linejoin:round"/><path d="M273.16 245.4s5-3.2 10-.69M292.81 244.94s3.19-1.6 6.19 2.06M290.08 253.57s-.39 3.45.56 4.24 2.92 1.36 1.87 2.81-4.29 1.55-5.7-.25M294.26 265.9s-4.09 2.8-10.67.28" style="fill:none;stroke:#263238;stroke-linecap:round;stroke-linejoin:round"/><path d="M279.51 252.94c-.06 1.37-.89 2.45-1.84 2.4s-1.69-1.18-1.63-2.55.88-2.44 1.84-2.4 1.69 1.19 1.63 2.55zM297.08 253.7c-.06 1.37-.89 2.45-1.84 2.4s-1.69-1.18-1.63-2.55.89-2.44 1.84-2.4 1.69 1.19 1.63 2.55z" style="fill:#263238"/><rect x="269.33" y="247.1" width="17.34" height="9.91" rx="2.62" transform="rotate(2.48 277.687 251.67)" style="fill:none;stroke:#263238;stroke-linecap:round;stroke-linejoin:round"/><rect x="289.87" y="247.94" width="14.86" height="9.91" rx="2.62" transform="rotate(2.48 296.89 252.64)" style="fill:none;stroke:#263238;stroke-linecap:round;stroke-linejoin:round"/><path style="fill:none;stroke:#263238;stroke-linecap:round;stroke-linejoin:round" d="m286.82 248.72 2.97.13M269.36 251.19l-6.93-.3"/><path d="M275.09 398.49s7.27-.32 9.85-1.47 20.76-6 21.69-5.69a70.27 70.27 0 0 1 9 4.49c1.47 1.08 4.63 9.69 5.83 13.1a1.56 1.56 0 0 1-.84 2h0a1.58 1.58 0 0 1-2-.59l-2.62-4.2 1.89 7.86a1.67 1.67 0 0 1-1.11 2h0a1.68 1.68 0 0 1-1.82-.53l-6.16-7.61-3-3 6.3 11.7a1.54 1.54 0 0 1-1.09 2.24h0a1.55 1.55 0 0 1-1.33-.41c-1.81-1.76-7.41-7.21-7.9-8a25.76 25.76 0 0 0-3.33-3.29l6.12 11.62h0a1.36 1.36 0 0 1-.52 2h-.09c-2.08.08-3.13-1.4-4.62-2.86l-6.44-6.3s-9.87 2.09-12.68 1.34-9.22-5.76-9.22-5.76z" style="fill:#fff;stroke:#263238;stroke-linecap:round;stroke-linejoin:round"/><path style="fill:#263238;stroke:#263238;stroke-linecap:round;stroke-linejoin:round" d="m275.09 398.49-.28 11.2-3.88-2.55 4.16-8.65z"/><path style="fill:#fff;stroke:#263238;stroke-linecap:round;stroke-linejoin:round" d="m315.96 406.13-2.21-4.47-7.8-5.7M305.73 404.86l-3.54-3.7M228.59 299.31s-9.76-.42-12.44 3.25-8.92 90.95-8.77 94.74 60.31 19.16 60.31 19.16l8.69-18.55-35.93-21.26 2.09-49.6"/><path d="M224.46 377.15s9.42-4.68 16-.5M228.18 380.1a19.29 19.29 0 0 1 9.8-2.78M223.49 384.73a8.34 8.34 0 0 1 .75-1.11" style="fill:none;stroke:#263238;stroke-linecap:round;stroke-linejoin:round"/></g><g><path d="M457.6 402.48s-4.47-5.68-4.47-9.13 3.45 1.63 3.45 1.63-7.3-13.39-6.69-18.87 6.08 9.54 6.08 9.54-1.82-30.83 1.22-29.82 6.9 30 6.9 31.85 2.63-12.78 4.66-8.52 2 14.4 2 14.4 2.64-15.42 4.67-10.14-2.42 19.26-2.42 19.26" style="fill:#636ae8"/><path style="fill:none;stroke:#263238;stroke-linecap:round;stroke-linejoin:round" d="M453.4 407.17h24.69v20.49H453.4z"/><path d="M478.29 414.27v-11.65h-25V416a3 3 0 0 0 3 3h.16a3 3 0 0 0 3-3v-1.69h.16V416a3 3 0 0 0 3 3h.16a3 3 0 0 0 3-3v-1.69h.16V416a3 3 0 0 0 3 3h.15a3 3 0 0 0 3-3v-1.69h.16V416a3 3 0 0 0 3 3h.15a3 3 0 0 0 3-3v-1.69z" style="fill:#fff;stroke:#263238;stroke-linecap:round;stroke-linejoin:round"/></g><g><path style="fill:#bfbfbf;stroke:#263238;stroke-linecap:round;stroke-linejoin:round" d="M178.21 412.37v-8.61h-18.82v8.29l18.82.32z"/><path d="m159.39 403.76-1.91-4.47a37.84 37.84 0 0 1 11.16.64 27 27 0 0 1 9.57 3.83zM157.48 399.29s-6.38.32-9.89 4.79a20.26 20.26 0 0 0-3.83 10.2l15.63-2.23v-8.29z" style="fill:#fff;stroke:#263238;stroke-linecap:round;stroke-linejoin:round"/><path d="M154.29 406.63V413l-4.79.32a9.87 9.87 0 0 1 1-5.11 3.06 3.06 0 0 1 3.79-1.58zM158.75 431.19h-9.88l-6.38-11.17 12.44-3.18 3.82 14.35z" style="fill:#fff;stroke:#263238;stroke-linecap:round;stroke-linejoin:round"/><path style="fill:#a6a6a6;stroke:#263238;stroke-linecap:round;stroke-linejoin:round" d="m201.81 419.07-6.38 12.12h-36.68l-5.42-10.53 48.48-1.59z"/><path transform="rotate(180 178.53 416.2)" style="fill:#bfbfbf;stroke:#263238;stroke-linecap:round;stroke-linejoin:round" d="M153.33 411.73h50.39v8.93h-50.39z"/><path style="fill:#fff;stroke:#263238;stroke-linecap:round;stroke-linejoin:round" d="m153.33 411.73-11.8 4.15v5.42l11.8-.64v-8.93z"/></g><g><path style="fill:#263238;stroke:#263238;stroke-linecap:round;stroke-linejoin:round" d="m284.12 425.37 64.59-.98 6.62-1.08h67.36l-2.21 4.54H282.46l1.66-2.48zM436.79 408.47h-82.82l11.61-83.31h82.81l-11.6 83.31z"/><path style="fill:#3d3d3d;stroke:#263238;stroke-linecap:round;stroke-linejoin:round" d="M440.49 408.47h-82.82l11.61-83.31h82.82l-11.61 83.31z"/><path style="fill:#3d3d3d;stroke:#263238;stroke-linecap:round;stroke-linejoin:round" d="M415.68 382.5h-25.97l4.37-31.36h25.97l-4.37 31.36z"/><path style="fill:#595959;stroke:#263238;stroke-linecap:round;stroke-linejoin:round" d="m394.08 351.14-24.8-25.98h82.82l-32.05 25.98h-25.97z"/><path style="fill:#2e2e2e;stroke:#263238;stroke-linecap:round;stroke-linejoin:round" d="m389.71 382.5-30.2 25.7 80.98.27-24.81-25.97h-25.97z"/><circle cx="408.19" cy="372.67" r="15.54" style="fill:#263238;stroke:#263238;stroke-linecap:round;stroke-linejoin:round"/><path d="M409.61 364.79h1a10.14 10.14 0 0 1 10.14 10.14v55h0-21.28 0v-55a10.14 10.14 0 0 1 10.14-10.14z" style="fill:#595959;stroke:#263238;stroke-linecap:round;stroke-linejoin:round"/><path d="M420.75 429.92v-54.49a9 9 0 1 0-17.88 2.13v52.36z" style="fill:#595959;stroke:#263238;stroke-linecap:round;stroke-linejoin:round"/><rect x="410.53" y="402.67" width="5.53" height="14.05" rx="2.64" style="fill:#263238;stroke:#263238;stroke-linecap:round;stroke-linejoin:round"/><path style="fill:#595959;stroke:#263238;stroke-linecap:round;stroke-linejoin:round" d="M382.01 424.81h39.16v5.11h-39.16z"/></g><g><path style="fill:#263238;stroke:#263238;stroke-linecap:round;stroke-linejoin:round" d="M19.85 427.79h468.5v8.94H19.85z"/></g></svg>