<svg version="1.2" xmlns="http://www.w3.org/2000/svg" viewBox="0 0 551 451" width="551" height="451">
	<title>logo</title>
	<defs>
		<clipPath clipPathUnits="userSpaceOnUse" id="cp1">
			<path d="m44.84 18.67h473.83v426.66h-473.83z"/>
		</clipPath>
		<clipPath clipPathUnits="userSpaceOnUse" id="cp2">
			<path d="m502.67 206.67h33.33v34.66h-33.33z"/>
		</clipPath>
		<clipPath clipPathUnits="userSpaceOnUse" id="cp3">
			<path d="m502.36 243.65l-5.89-33.45 34.42-6.07 5.9 33.44z"/>
		</clipPath>
		<clipPath clipPathUnits="userSpaceOnUse" id="cp4">
			<path d="m502.36 243.65l-5.89-33.45 34.42-6.07 5.9 33.44z"/>
		</clipPath>
	</defs>
	<style>
		.s0 { fill: #1f1d44 } 
		.s1 { fill: #636ae8 } 
	</style>
	<g id="6e07bd6b43">
		<path class="s0" d="m425.2 394.9v0.2l-0.2-0.1c0 0 0.1 0 0.2-0.1z"/>
		<g id="Clip-Path" clip-path="url(#cp1)">
			<g>
				<path class="s1" d="m516.6 272.9c-6.3 45.1-27.2 84.5-57.3 114.2-2 2-4.1 3.9-6.2 5.9-5.3 4.8-10.9 9.3-16.6 13.5q-2 1.5-4.1 2.9c-39.6 27.3-89.1 40.4-140.4 33.2-49-6.8-91.3-30.9-121.6-65.3-28.5-32.2-46.5-73.5-49.5-118.1-0.5-6.8-0.6-13.7-0.3-20.6 0-1.5 0.1-2.9 0.1-4.4 0.2-3 0.4-6.1 0.7-9.1-0.4-6.8-2-13.3-4.7-19.1-0.4-0.9-0.8-1.7-1.2-2.5-5.7-10.9-14.9-19.5-26.1-24.5 17.2 8.6 24.2 28.8 24.2 28.8-2.9 2-8.5 2.6-14.6 1.8-10.2-1.5-21.8-7.1-25.2-18.1-5.4-17.7-14.8-23.5-14.8-23.5 9-1.1 16.7-1.1 23.2-0.1 30.8 4.3 36.6 27.2 37.8 34.8 0.3 0.6 0.7 1.2 1 1.8 0.9 1.8 1.8 3.7 2.6 5.6q1.4-7.4 3.2-14.6 2.2-8.5 5-16.6c8.7-39.6-6.1-79.2-35.4-103.8 27.8 25.8 29.9 68 29.9 68-3.1 1-7.1 1.1-11.7 0.5-21.4-3-54.4-23.6-54.8-53.7-0.3-36.4-14.8-52.7-14.8-52.7 100.9 16.8 98.7 81.6 96 99.9q1.9 7.2 2.7 14.7c4.3-8.2 9.3-16 14.7-23.5 7.1-29.8 42.2-126.9 193.5-105.7 9.3 1.3 19 3 29.2 5.2 0 0-34.4 17.2-59 76.5-18.7 45.1-77.4 58.9-115.5 53.5-11.9-1.6-21.8-5.1-27.9-10.2 0 0 31-67.5 93.5-91.5-65.6 21.6-116.7 78.8-126.9 151.8-8 57.2 10.8 112 46.9 151.6q2.3 2.6 4.6 5c27.9 28.6 65.2 48.5 107.8 54.4 23.8 3.3 47.2 2 69.3-3.3q0 0 0 0c14.5-3.5 28.5-8.6 41.6-15.3 1.3-0.7 2.5-1.4 3.7-2 2-1.1 3.9-2.1 5.8-3.2h0.1v-0.1q2.2-1.3 4.4-2.7c2.5-1.5 4.9-3.1 7.3-4.8 3.1-2.1 6-4.2 8.9-6.5 2.2-1.8 4.4-3.6 6.6-5.4 33.3-28.7 56.8-69.1 63.3-116 1.9-13.3 2.3-26.4 1.4-39.3 2.2 17.1 2.1 34.8-0.4 52.6z"/>
			</g>
		</g>
		<g id="Clip-Path" clip-path="url(#cp2)">
			<g>
				<g id="Clip-Path" clip-path="url(#cp3)">
					<g>
						<g id="Clip-Path" clip-path="url(#cp4)">
							<g>
								<path class="s1" d="m535.3 234.9c-2.3 2.8-14.9-4.3-17.8-3.8-3.5 0.7-9.9 11.6-13.5 9.6-2.4-1.4 5.3-32.6 9.3-33.3 5.4-1 22.8 26.4 22 27.5z"/>
							</g>
						</g>
					</g>
				</g>
			</g>
		</g>
	</g>
</svg>